<svg width="104" height="31" viewBox="0 0 104 31" fill="none" xmlns="http://www.w3.org/2000/svg">
<path d="M100.148 0.5H3.85185C1.72453 0.5 0 2.17893 0 4.25V26.75C0 28.8211 1.72453 30.5 3.85185 30.5H100.148C102.275 30.5 104 28.8211 104 26.75V4.25C104 2.17893 102.275 0.5 100.148 0.5Z" fill="black"/>
<path d="M100.148 1.1C101.006 1.1 101.829 1.43187 102.436 2.02261C103.043 2.61335 103.384 3.41457 103.384 4.25V26.75C103.384 27.5854 103.043 28.3866 102.436 28.9774C101.829 29.5681 101.006 29.9 100.148 29.9H3.85185C2.99373 29.9 2.17075 29.5681 1.56397 28.9774C0.957184 28.3866 0.616296 27.5854 0.616296 26.75V4.25C0.616296 3.41457 0.957184 2.61335 1.56397 2.02261C2.17075 1.43187 2.99373 1.1 3.85185 1.1H100.148ZM100.148 0.5H3.85185C2.83028 0.5 1.85054 0.895088 1.12818 1.59835C0.405819 2.30161 0 3.25544 0 4.25V26.75C0 27.7446 0.405819 28.6984 1.12818 29.4016C1.85054 30.1049 2.83028 30.5 3.85185 30.5H100.148C101.17 30.5 102.149 30.1049 102.872 29.4016C103.594 28.6984 104 27.7446 104 26.75V4.25C104 3.25544 103.594 2.30161 102.872 1.59835C102.149 0.895088 101.17 0.5 100.148 0.5Z" fill="#A6A6A6"/>
<path d="M24.7387 14.9847C24.7174 12.6815 26.6757 11.561 26.7653 11.5089C25.6562 9.93458 23.9371 9.71949 23.333 9.70234C21.8892 9.55441 20.4887 10.5434 19.7532 10.5434C19.0031 10.5434 17.8705 9.71663 16.6498 9.74093C15.079 9.76451 13.6095 10.6499 12.8036 12.0248C11.1403 14.8282 12.3808 18.9479 13.9744 21.2139C14.7715 22.3237 15.703 23.5628 16.9222 23.5192C18.1149 23.4713 18.5605 22.7789 19.9999 22.7789C21.4261 22.7789 21.8444 23.5192 23.0879 23.4914C24.368 23.4713 25.1739 22.3766 25.9432 21.2568C26.8644 19.9848 27.2343 18.7321 27.249 18.6678C27.2189 18.6578 24.7629 17.7452 24.7387 14.9847Z" fill="white"/>
<path d="M22.3899 8.21169C23.0314 7.43063 23.4704 6.36801 23.3485 5.28967C22.42 5.32969 21.2588 5.91495 20.5901 6.67886C19.9985 7.35202 19.47 8.45537 19.6065 9.49298C20.6495 9.56873 21.7205 8.98061 22.3899 8.21169Z" fill="white"/>
<path d="M42.0002 23.3598H40.3332L39.4201 20.5664H36.2462L35.3764 23.3598H33.7535L36.8981 13.8499H38.8403L42.0002 23.3598ZM39.1449 19.3945L38.3191 16.9112C38.2318 16.6575 38.0681 16.0601 37.8266 15.1197H37.7972C37.7011 15.5242 37.5462 16.1216 37.3333 16.9112L36.5222 19.3945H39.1449Z" fill="white"/>
<path d="M50.0867 19.8468C50.0867 21.0131 49.763 21.9349 49.1156 22.6116C48.5357 23.214 47.8156 23.5149 46.9561 23.5149C46.0283 23.5149 45.3618 23.1905 44.9559 22.5416H44.9266V26.1539H43.3616V18.7599C43.3616 18.0267 43.3418 17.2742 43.3036 16.5025H44.6799L44.7673 17.5894H44.7966C45.3185 16.7704 46.1105 16.3617 47.1734 16.3617C48.0043 16.3617 48.6979 16.6811 49.2528 17.3207C49.8092 17.961 50.0867 18.8028 50.0867 19.8468ZM48.4924 19.9026C48.4924 19.2351 48.3382 18.6849 48.0285 18.2518C47.6901 17.8002 47.2358 17.5744 46.6662 17.5744C46.2801 17.5744 45.9292 17.7001 45.6158 17.9481C45.3016 18.1982 45.0961 18.5248 45 18.9293C44.9515 19.1179 44.9273 19.2723 44.9273 19.3938V20.5371C44.9273 21.0359 45.0844 21.4568 45.3985 21.8005C45.7127 22.1443 46.1208 22.3158 46.6229 22.3158C47.2123 22.3158 47.671 22.0943 47.9991 21.6526C48.328 21.2103 48.4924 20.6272 48.4924 19.9026Z" fill="white"/>
<path d="M58.1883 19.8468C58.1883 21.0131 57.8646 21.9349 57.2165 22.6116C56.6373 23.214 55.9173 23.5149 55.0577 23.5149C54.1299 23.5149 53.4634 23.1905 53.0583 22.5416H53.0289V26.1539H51.464V18.7599C51.464 18.0267 51.4442 17.2742 51.406 16.5025H52.7823L52.8696 17.5894H52.899C53.4201 16.7704 54.2121 16.3617 55.2757 16.3617C56.1059 16.3617 56.7995 16.6811 57.3559 17.3207C57.9101 17.961 58.1883 18.8028 58.1883 19.8468ZM56.594 19.9026C56.594 19.2351 56.4391 18.6849 56.1294 18.2518C55.791 17.8002 55.3381 17.5744 54.7678 17.5744C54.381 17.5744 54.0308 17.7001 53.7167 17.9481C53.4025 18.1982 53.1977 18.5248 53.1016 18.9293C53.0539 19.1179 53.0289 19.2723 53.0289 19.3938V20.5371C53.0289 21.0359 53.186 21.4568 53.4987 21.8005C53.8128 22.1436 54.221 22.3158 54.7245 22.3158C55.3139 22.3158 55.7727 22.0943 56.1008 21.6526C56.4296 21.2103 56.594 20.6272 56.594 19.9026Z" fill="white"/>
<path d="M67.2459 20.693C67.2459 21.5019 66.9575 22.1601 66.3783 22.6681C65.7419 23.2234 64.856 23.5007 63.7175 23.5007C62.6664 23.5007 61.8238 23.3034 61.1859 22.9082L61.5485 21.6384C62.2356 22.0429 62.9894 22.2458 63.8108 22.2458C64.4002 22.2458 64.8589 22.1158 65.1885 21.8571C65.5166 21.5984 65.6803 21.2511 65.6803 20.818C65.6803 20.4321 65.5452 20.107 65.2744 19.8433C65.005 19.5796 64.555 19.3345 63.9267 19.108C62.2165 18.487 61.3621 17.5773 61.3621 16.381C61.3621 15.5993 61.6616 14.9583 62.2612 14.4595C62.8587 13.96 63.6559 13.7106 64.6527 13.7106C65.5416 13.7106 66.28 13.8614 66.8694 14.1622L66.4782 15.4042C65.9276 15.1126 65.3052 14.9668 64.6086 14.9668C64.0581 14.9668 63.628 15.099 63.3197 15.362C63.0591 15.5971 62.9285 15.8837 62.9285 16.2231C62.9285 16.599 63.0775 16.9099 63.3769 17.1543C63.6375 17.3801 64.111 17.6245 64.798 17.8882C65.6384 18.2176 66.2558 18.6028 66.6529 19.0444C67.0485 19.4846 67.2459 20.0355 67.2459 20.693Z" fill="white"/>
<path d="M72.4199 17.6459H70.695V20.9753C70.695 21.8221 70.9989 22.2451 71.6081 22.2451C71.8878 22.2451 72.1197 22.2215 72.3032 22.1744L72.3465 23.3313C72.0383 23.4435 71.6323 23.5 71.1295 23.5C70.5115 23.5 70.0285 23.3163 69.6799 22.9497C69.3327 22.5824 69.158 21.9664 69.158 21.101V17.6445H68.1304V16.5011H69.158V15.2456L70.695 14.7939V16.5011H72.4199V17.6459Z" fill="white"/>
<path d="M80.2026 19.8748C80.2026 20.9289 79.8928 21.7943 79.2748 22.471C78.6267 23.1677 77.7664 23.515 76.694 23.515C75.6605 23.515 74.8377 23.1813 74.224 22.5139C73.6104 21.8464 73.3036 21.0039 73.3036 19.9885C73.3036 18.9258 73.6192 18.0554 74.2527 17.3787C74.8847 16.7013 75.7376 16.3625 76.81 16.3625C77.8435 16.3625 78.6751 16.6963 79.3027 17.3644C79.9031 18.0126 80.2026 18.8494 80.2026 19.8748ZM78.5789 19.9241C78.5789 19.2917 78.4402 18.7493 78.1591 18.297C77.831 17.7496 77.362 17.4766 76.7542 17.4766C76.1251 17.4766 75.6473 17.7503 75.3192 18.297C75.0381 18.75 74.8993 19.301 74.8993 19.9527C74.8993 20.5851 75.0381 21.1275 75.3192 21.5792C75.6576 22.1266 76.1303 22.3995 76.7402 22.3995C77.3377 22.3995 77.8068 22.1208 78.1451 21.5649C78.4336 21.104 78.5789 20.5559 78.5789 19.9241Z" fill="white"/>
<path d="M85.2891 17.8424C85.1342 17.8145 84.9691 17.8002 84.7959 17.8002C84.2453 17.8002 83.8196 18.0024 83.5201 18.4076C83.2596 18.7649 83.1289 19.2165 83.1289 19.7618V23.3598H81.5647L81.5794 18.662C81.5794 17.8717 81.5596 17.152 81.5207 16.5032H82.8838L82.941 17.8152H82.9843C83.1495 17.3643 83.41 17.0013 83.7668 16.729C84.1154 16.4839 84.492 16.3617 84.8979 16.3617C85.0425 16.3617 85.1731 16.3717 85.2891 16.3896V17.8424Z" fill="white"/>
<path d="M92.2879 19.6068C92.2879 19.8797 92.2695 20.1098 92.2306 20.2978H87.5359C87.5542 20.9752 87.781 21.4933 88.217 21.8506C88.6127 22.17 89.1243 22.3301 89.7526 22.3301C90.4477 22.3301 91.0819 22.2222 91.6522 22.0057L91.8974 23.0633C91.2309 23.3463 90.444 23.4871 89.5361 23.4871C88.4438 23.4871 87.5865 23.1741 86.9626 22.5488C86.3402 21.9235 86.0282 21.0838 86.0282 20.0305C86.0282 18.9965 86.3181 18.1354 86.8987 17.4487C87.5065 16.7155 88.3279 16.3489 89.3614 16.3489C90.3765 16.3489 91.145 16.7155 91.6669 17.4487C92.0801 18.0311 92.2879 18.7514 92.2879 19.6068ZM90.7956 19.2116C90.8059 18.76 90.7039 18.3698 90.4917 18.0403C90.2209 17.6166 89.8047 17.4051 89.2447 17.4051C88.733 17.4051 88.3169 17.6116 87.999 18.0261C87.7385 18.3555 87.5836 18.7507 87.5359 19.2109H90.7956V19.2116Z" fill="white"/>
<path d="M38.6275 7.99955C38.6275 8.84064 38.3684 9.47378 37.8509 9.89897C37.3716 10.2913 36.6905 10.4878 35.8082 10.4878C35.3707 10.4878 34.9963 10.4692 34.6829 10.4321V5.83644C35.0918 5.77213 35.5322 5.73926 36.0078 5.73926C36.8483 5.73926 37.4817 5.91719 37.9089 6.27307C38.3875 6.67539 38.6275 7.25065 38.6275 7.99955ZM37.8164 8.02028C37.8164 7.47503 37.6682 7.05699 37.3716 6.76543C37.0751 6.47459 36.642 6.32881 36.0717 6.32881C35.8295 6.32881 35.6232 6.34453 35.4522 6.3774V9.8711C35.5469 9.88539 35.7201 9.89183 35.9719 9.89183C36.5605 9.89183 37.0149 9.73247 37.3349 9.41375C37.6549 9.09504 37.8164 8.63055 37.8164 8.02028Z" fill="white"/>
<path d="M42.9281 8.73409C42.9281 9.25218 42.7761 9.67665 42.4722 10.0097C42.1537 10.352 41.7316 10.5227 41.2046 10.5227C40.6967 10.5227 40.2922 10.3591 39.9905 10.0304C39.6896 9.70238 39.5391 9.28862 39.5391 8.78983C39.5391 8.26817 39.694 7.84012 40.0052 7.50783C40.3164 7.17554 40.7348 7.00903 41.2619 7.00903C41.7698 7.00903 42.1779 7.17268 42.4869 7.50068C42.7805 7.81939 42.9281 8.23101 42.9281 8.73409ZM42.1302 8.75839C42.1302 8.44753 42.0612 8.18098 41.9239 7.95874C41.7624 7.69005 41.5327 7.55571 41.234 7.55571C40.9249 7.55571 40.6901 7.69005 40.5286 7.95874C40.3906 8.18098 40.3223 8.45182 40.3223 8.77196C40.3223 9.08282 40.3913 9.34936 40.5286 9.57161C40.6952 9.8403 40.9271 9.97464 41.2266 9.97464C41.5202 9.97464 41.7507 9.83815 41.9166 9.56446C42.059 9.33793 42.1302 9.06924 42.1302 8.75839Z" fill="white"/>
<path d="M48.6945 7.07764L47.6119 10.4463H46.9072L46.4587 8.98349C46.3449 8.61832 46.2525 8.25531 46.1805 7.89514H46.1666C46.0998 8.26531 46.0073 8.62761 45.8884 8.98349L45.412 10.4463H44.6993L43.6812 7.07764H44.4717L44.863 8.67907C44.9577 9.05781 45.0355 9.41868 45.0979 9.76026H45.1118C45.1691 9.47871 45.2637 9.11998 45.3973 8.68621L45.8884 7.07835H46.5152L46.9857 8.65191C47.0995 9.03565 47.192 9.40511 47.2632 9.76098H47.2845C47.3366 9.4144 47.4151 9.04494 47.5194 8.65191L47.9392 7.07835H48.6945V7.07764Z" fill="white"/>
<path d="M52.6826 10.4463H51.9134V8.51692C51.9134 7.92237 51.6814 7.62509 51.216 7.62509C50.9878 7.62509 50.8035 7.70656 50.6604 7.8702C50.5187 8.03384 50.4468 8.22679 50.4468 8.4476V10.4456H49.6775V8.04028C49.6775 7.74443 49.668 7.42357 49.6497 7.07627H50.3257L50.3617 7.60294H50.3829C50.4725 7.43929 50.6061 7.30423 50.7815 7.19633C50.99 7.07056 51.2234 7.00696 51.4788 7.00696C51.8018 7.00696 52.0704 7.10843 52.284 7.31209C52.5497 7.56149 52.6826 7.9338 52.6826 8.42831V10.4463Z" fill="white"/>
<path d="M54.8037 10.4463H54.0352V5.53198H54.8037V10.4463Z" fill="white"/>
<path d="M59.3327 8.73409C59.3327 9.25218 59.1807 9.67665 58.8768 10.0097C58.5583 10.352 58.1355 10.5227 57.6092 10.5227C57.1005 10.5227 56.6961 10.3591 56.3951 10.0304C56.0942 9.70238 55.9437 9.28862 55.9437 8.78983C55.9437 8.26817 56.0986 7.84012 56.4098 7.50783C56.721 7.17554 57.1394 7.00903 57.6657 7.00903C58.1744 7.00903 58.5818 7.17268 58.8915 7.50068C59.1851 7.81939 59.3327 8.23101 59.3327 8.73409ZM58.5341 8.75839C58.5341 8.44753 58.4651 8.18098 58.3278 7.95874C58.1671 7.69005 57.9366 7.55571 57.6386 7.55571C57.3288 7.55571 57.0939 7.69005 56.9332 7.95874C56.7952 8.18098 56.7269 8.45182 56.7269 8.77196C56.7269 9.08282 56.7959 9.34936 56.9332 9.57161C57.0998 9.8403 57.3317 9.97464 57.6312 9.97464C57.9248 9.97464 58.1546 9.83815 58.3205 9.56446C58.4636 9.33793 58.5341 9.06924 58.5341 8.75839Z" fill="white"/>
<path d="M63.0557 10.4463H62.365L62.3077 10.0583H62.2864C62.0501 10.3677 61.7132 10.5227 61.2757 10.5227C60.949 10.5227 60.6848 10.4206 60.4859 10.2176C60.3053 10.0332 60.215 9.80385 60.215 9.53159C60.215 9.11998 60.3912 8.80626 60.7457 8.58902C61.0995 8.37178 61.5972 8.26531 62.238 8.27031V8.20743C62.238 7.76366 61.9987 7.54213 61.5194 7.54213C61.1781 7.54213 60.8771 7.62574 60.6173 7.79153L60.4609 7.29988C60.7824 7.10622 61.1795 7.00903 61.6478 7.00903C62.5521 7.00903 63.0058 7.47353 63.0058 8.40251V9.64307C63.0058 9.97964 63.0226 10.2476 63.0557 10.4463ZM62.2571 9.28862V8.7691C61.4085 8.75481 60.9843 8.98134 60.9843 9.44798C60.9843 9.62377 61.0327 9.75526 61.1318 9.84316C61.2309 9.93105 61.3572 9.97464 61.5076 9.97464C61.6765 9.97464 61.8343 9.92248 61.9781 9.81886C62.1227 9.71453 62.2115 9.58232 62.2446 9.42011C62.2527 9.38366 62.2571 9.33936 62.2571 9.28862Z" fill="white"/>
<path d="M67.4263 10.4463H66.7437L66.7077 9.90536H66.6864C66.4684 10.317 66.097 10.5228 65.5751 10.5228C65.1582 10.5228 64.811 10.3634 64.5357 10.0447C64.2605 9.726 64.1232 9.31224 64.1232 8.80416C64.1232 8.25891 64.2722 7.81729 64.5717 7.47999C64.8616 7.16557 65.2169 7.00836 65.6397 7.00836C66.1043 7.00836 66.4295 7.16057 66.6145 7.4657H66.6292V5.53198H67.3991V9.53877C67.3991 9.86678 67.4079 10.1691 67.4263 10.4463ZM66.6292 9.02569V8.46401C66.6292 8.36682 66.6218 8.28821 66.6079 8.22819C66.5646 8.04811 66.4713 7.89661 66.3297 7.77441C66.1865 7.65222 66.014 7.59076 65.8151 7.59076C65.5281 7.59076 65.3035 7.70152 65.1384 7.92376C64.9747 8.14601 64.8917 8.4297 64.8917 8.77629C64.8917 9.10929 64.9703 9.37941 65.1281 9.58736C65.2947 9.80889 65.5193 9.91966 65.8005 9.91966C66.053 9.91966 66.2548 9.82747 66.4082 9.64239C66.5565 9.4716 66.6292 9.26579 66.6292 9.02569Z" fill="white"/>
<path d="M74.0055 8.73409C74.0055 9.25218 73.8535 9.67665 73.5496 10.0097C73.2311 10.352 72.8097 10.5227 72.282 10.5227C71.7748 10.5227 71.3704 10.3591 71.0679 10.0304C70.767 9.70238 70.6165 9.28862 70.6165 8.78983C70.6165 8.26817 70.7714 7.84012 71.0826 7.50783C71.3938 7.17554 71.8122 7.00903 72.34 7.00903C72.8472 7.00903 73.256 7.17268 73.5643 7.50068C73.8579 7.81939 74.0055 8.23101 74.0055 8.73409ZM73.2083 8.75839C73.2083 8.44753 73.1393 8.18098 73.0021 7.95874C72.8398 7.69005 72.6108 7.55571 72.3114 7.55571C72.0031 7.55571 71.7682 7.69005 71.606 7.95874C71.468 8.18098 71.3997 8.45182 71.3997 8.77196C71.3997 9.08282 71.4687 9.34936 71.606 9.57161C71.7726 9.8403 72.0045 9.97464 72.304 9.97464C72.5976 9.97464 72.8288 9.83815 72.9947 9.56446C73.1364 9.33793 73.2083 9.06924 73.2083 8.75839Z" fill="white"/>
<path d="M78.1415 10.4463H77.373V8.51692C77.373 7.92237 77.1411 7.62509 76.675 7.62509C76.4467 7.62509 76.2624 7.70656 76.12 7.8702C75.9777 8.03384 75.9065 8.22679 75.9065 8.4476V10.4456H75.1365V8.04028C75.1365 7.74443 75.1277 7.42357 75.1093 7.07627H75.7846L75.8206 7.60294H75.8419C75.9321 7.43929 76.0657 7.30423 76.2404 7.19633C76.4496 7.07056 76.6823 7.00696 76.9385 7.00696C77.2607 7.00696 77.5294 7.10843 77.743 7.31209C78.0094 7.56149 78.1415 7.9338 78.1415 8.42831V10.4463Z" fill="white"/>
<path d="M83.3184 7.63868H82.4714V9.27513C82.4714 9.69103 82.6218 9.89898 82.9198 9.89898C83.0578 9.89898 83.1723 9.88754 83.2626 9.86396L83.2824 10.4321C83.1305 10.4878 82.9308 10.5157 82.685 10.5157C82.3811 10.5157 82.1447 10.4256 81.9737 10.2456C81.8019 10.0655 81.7168 9.76249 81.7168 9.3373V7.63868H81.2111V7.07772H81.7168V6.4603L82.4706 6.23877V7.077H83.3177V7.63868H83.3184Z" fill="white"/>
<path d="M87.391 10.4463H86.6211V8.53118C86.6211 7.92734 86.3891 7.62506 85.9245 7.62506C85.5678 7.62506 85.3241 7.80014 85.1905 8.15029C85.1677 8.2239 85.1545 8.31394 85.1545 8.4197V10.4456H84.386V5.53198H85.1545V7.56217H85.1692C85.4114 7.19272 85.7586 7.00836 86.2085 7.00836C86.5271 7.00836 86.7906 7.10983 86.9998 7.31349C87.2604 7.56718 87.391 7.94449 87.391 8.44328V10.4463Z" fill="white"/>
<path d="M91.5918 8.60256C91.5918 8.73691 91.5815 8.84982 91.5632 8.942H89.2562C89.2665 9.27501 89.3766 9.52869 89.5902 9.70448C89.7854 9.8617 90.0372 9.9403 90.3455 9.9403C90.6868 9.9403 90.998 9.88742 91.2784 9.78095L91.3988 10.3012C91.0707 10.4398 90.6846 10.5091 90.2376 10.5091C89.7017 10.5091 89.2797 10.3555 88.9743 10.0482C88.6675 9.74093 88.5156 9.3286 88.5156 8.81123C88.5156 8.30314 88.6572 7.8801 88.9428 7.5428C89.2408 7.18264 89.6437 7.00256 90.1524 7.00256C90.6501 7.00256 91.0281 7.18264 91.2835 7.5428C91.4898 7.82865 91.5918 8.18238 91.5918 8.60256ZM90.8578 8.40891C90.8637 8.18666 90.813 7.99515 90.7088 7.83365C90.5752 7.6257 90.3719 7.52137 90.0966 7.52137C89.8456 7.52137 89.6408 7.62284 89.4845 7.8265C89.3567 7.98872 89.2811 8.18238 89.2562 8.40891H90.8578Z" fill="white"/>
</svg>
