<svg width="40" height="40" viewBox="0 0 40 40" fill="none" xmlns="http://www.w3.org/2000/svg">
<g clip-path="url(#clip0_32_215)">
<path d="M37.8771 12.3417H31.0939C29.9234 12.3417 28.971 13.2945 28.971 14.4658V22.2731H26.4338C26.5748 21.7605 26.6271 21.1559 26.5928 20.4523V20.4523C26.5377 17.4789 25.9982 14.973 24.9891 13.0041C24.2055 11.4754 23.291 10.5589 22.5063 10.011C23.4273 9.06406 23.9598 7.71695 23.9598 6.16328C23.9598 3.36789 21.7299 1.09375 18.9891 1.09375C16.2482 1.09375 14.0183 3.36789 14.0183 6.16328C14.0183 6.48695 14.2806 6.74922 14.6042 6.74922H15.0023C14.9657 6.97031 14.9462 7.19562 14.9462 7.42445C14.9462 9.39445 16.3538 11.0409 18.2149 11.4099C18.0198 12.1343 17.9229 12.9884 17.9233 13.9587L16.4619 15.2157L12.906 15.5033L8.80422 14.1473C8.42828 14.0223 8.00219 13.8811 7.6325 14.1477C7.2682 14.4105 7.2682 14.8708 7.2682 15.022V18.0716C7.2682 18.3952 7.53055 18.6575 7.85414 18.6575H8.55172L7.4818 22.3547C7.39188 22.6655 7.57094 22.9905 7.8818 23.0804C8.19281 23.1708 8.51758 22.9912 8.60758 22.6805L9.7718 18.6575H11.4376C9.3657 24.9756 10.5479 29.193 12.365 33.461H11.3117L6.92477 28.5559L7.85242 25.3512C7.94242 25.0403 7.76336 24.7154 7.4525 24.6255C7.14164 24.5355 6.81672 24.7146 6.72672 25.0254L5.83945 28.0908C3.09524 28.045 0.640548 29.937 0.0150009 32.6591C-0.057421 32.9745 0.139376 33.2888 0.45461 33.3613L1.28641 33.5527C1.07391 35.7599 2.52742 37.8423 4.74414 38.3526C5.08078 38.4302 5.42031 38.4684 5.7575 38.4684C6.58906 38.4684 7.40602 38.2353 8.12859 37.7824C8.97664 37.251 9.60852 36.4698 9.95047 35.5465L10.6068 35.6975C10.8023 35.7427 10.9878 35.7656 11.1731 35.6659C11.3455 35.573 11.4602 35.4055 11.5031 35.2163C11.5444 35.0245 11.5758 34.8296 11.5976 34.6329H23.8521C24.244 37.0694 26.317 38.906 28.7929 38.906C31.2688 38.906 33.3419 37.0694 33.7337 34.6329H34.1809C34.1809 34.6329 34.2697 34.6339 34.2899 34.6339C34.4575 34.6339 34.6995 34.6153 34.8983 34.4131C34.9977 34.312 35.1145 34.1309 35.1055 33.8434C35.089 33.2931 35.0064 32.7615 34.8655 32.2562C35.3322 29.4227 34.8831 27.697 34.2174 26.3465C34.6383 26.0706 34.9173 25.5953 34.9173 25.0553V23.4449H37.877C39.0475 23.4449 39.9998 22.4921 39.9998 21.3209V14.4657C40 13.2945 39.0477 12.3417 37.8771 12.3417ZM7.50633 36.7896C6.75625 37.2597 5.86875 37.4091 5.00719 37.2108H5.00711C3.42133 36.8458 2.36336 35.3916 2.44047 33.8193L8.79617 35.2821C8.5332 35.9012 8.08828 36.4249 7.50633 36.7896ZM10.4382 34.4563L1.32375 32.359C2.02711 30.4329 3.91992 29.1579 5.98891 29.2676L10.4538 34.2598C10.4499 34.3257 10.4448 34.3912 10.4382 34.4563ZM19.2886 24.2458C19.1185 24.6944 19.1185 25.2474 19.1185 26.013V28.2241H16.973V25.1906C16.973 21.7611 18.8447 21.1499 19.6847 21.0491H25.4291C25.406 21.8274 25.2304 22.3807 24.897 22.7319C24.5084 23.1411 23.8434 23.3405 22.8641 23.3414L20.7609 23.3436C20.0109 23.3437 19.5155 23.6471 19.2886 24.2458ZM19.1185 29.3959V30.7949C19.1132 30.7949 19.1077 30.7949 19.1021 30.7949H14.9402C14.987 30.361 15.1221 30.0252 15.3441 29.7929C15.6742 29.4474 16.1392 29.3959 16.387 29.3959H19.1185ZM25.4033 19.8773H20.0746C19.8606 19.2039 19.6698 18.4666 19.513 17.7087L21.133 16.6572C22.0174 16.0829 22.4775 15.2714 22.3953 14.4307C22.3225 13.6855 21.8159 13.0198 21.1046 12.7348C20.4551 12.4747 19.7559 12.5564 19.138 12.9515C19.189 12.391 19.2838 11.8907 19.421 11.466C19.6708 11.4402 19.9188 11.3914 20.1624 11.3198C20.6583 11.2046 21.1165 11.0211 21.5302 10.7777C22.6587 11.452 25.1407 13.6388 25.4033 19.8773ZM15.233 5.57742C15.5094 3.70523 17.0884 2.2657 18.9891 2.2657C21.0838 2.2657 22.788 4.01422 22.788 6.16336C22.788 7.91133 21.9498 9.32016 20.5982 9.94016V6.85711C20.5982 6.32328 20.3939 5.66844 19.4209 5.57984C19.4033 5.5782 19.3855 5.57742 19.3678 5.57742H15.233ZM16.1181 7.42453C16.1181 7.19328 16.1445 6.96742 16.1963 6.7493H19.3391C19.3752 6.7532 19.4016 6.75742 19.4205 6.76125C19.4236 6.78297 19.4263 6.81422 19.4263 6.85711V10.2849C19.2866 10.3055 19.1462 10.3159 19.0058 10.3159C19.0045 10.3159 19.0031 10.3159 19.0019 10.3159C17.4116 10.3145 16.1181 9.01797 16.1181 7.42453ZM15.3585 16.4808L16.7463 16.3685C16.87 16.3586 16.9873 16.3096 17.0814 16.2288L19.5861 14.0745L19.5865 14.0741C19.8287 13.8654 20.0872 13.7584 20.3389 13.7584C20.4509 13.7584 20.5616 13.7796 20.6689 13.8226C20.9785 13.9466 21.1984 14.23 21.2291 14.5445C21.2678 14.9404 21.007 15.3416 20.4951 15.6741L17.7041 17.4857H15.3587V16.4808H15.3585ZM12.8823 16.6811L14.1866 16.5756V17.4859H12.6709C12.4745 17.4859 12.4266 17.3226 12.4209 17.1856C12.4177 17.108 12.4251 16.7186 12.8823 16.6811ZM11.4955 16.2766C11.319 16.5659 11.2366 16.9045 11.2501 17.2336C11.2536 17.3188 11.2645 17.4009 11.2796 17.4809C11.2796 17.4826 11.2787 17.4842 11.279 17.4858H8.44024V15.2613L11.4977 16.272C11.4968 16.2736 11.4963 16.2751 11.4955 16.2766ZM12.6742 18.6577H17.8774C17.9906 18.6577 18.1015 18.6248 18.1964 18.5632L18.4616 18.391C18.5892 18.9549 18.7345 19.5037 18.8928 20.022C17.6978 20.3747 15.801 21.5146 15.801 25.1905V28.2828C15.3899 28.3658 14.9036 28.5575 14.4968 28.9832C14.068 29.432 13.823 30.04 13.7643 30.7948H12.5823C11.3912 27.3622 10.9382 23.7094 12.6742 18.6577ZM13.64 33.4591C13.4234 32.961 13.2147 32.4648 13.0181 31.9668H19.102C19.8905 31.9668 20.2903 31.6078 20.2903 30.8999V28.8099V26.5988H24.9152C25.2389 26.5988 25.5012 26.3366 25.5012 26.0129C25.5012 25.6892 25.2389 25.427 24.9152 25.427H20.2945C20.302 25.0941 20.3234 24.822 20.3844 24.6612C20.414 24.583 20.4396 24.5155 20.7614 24.5155L22.8652 24.5133C24.1827 24.512 25.1253 24.1933 25.7468 23.5387C25.7755 23.5084 25.8027 23.4766 25.83 23.445H29.557H33.7457V25.0554C33.7457 25.2568 33.5759 25.427 33.375 25.427H27.5418C27.2181 25.427 26.9559 25.6892 26.9559 26.0129C26.9559 26.3366 27.2181 26.5988 27.5418 26.5988H33.0307C33.4938 27.4584 33.9104 28.528 33.8856 30.218C32.7264 28.6077 30.8498 27.5723 28.7199 27.5723C27.0095 27.5723 25.4045 28.2433 24.2005 29.4616C23.1321 30.5427 22.4905 31.9457 22.3584 33.461L13.64 33.4591ZM28.793 37.7343C26.9612 37.7343 25.4164 36.4145 25.0427 34.633H32.5433C32.1695 36.4144 30.6246 37.7343 28.793 37.7343ZM33.2089 33.4612H24.3772H23.5354C23.823 30.8117 26.0384 28.7442 28.7199 28.7442C31.0742 28.7442 33.0513 30.2966 33.7061 32.4698C33.7082 32.4767 33.7103 32.4836 33.7127 32.4904C33.8052 32.8022 33.8706 33.1267 33.906 33.4612H33.2089ZM38.8281 21.3209C38.8281 21.846 38.4015 22.2731 37.8771 22.2731H30.1429V19.2473H38.8281V21.3209ZM38.8281 18.0754H30.1429V16.8292H38.8281V18.0754ZM38.8281 15.6573H30.1429V14.4658C30.1429 13.9407 30.5695 13.5136 31.0939 13.5136H37.8771C38.4015 13.5136 38.8281 13.9408 38.8281 14.4658V15.6573Z" fill="#09A66D"/>
</g>
<defs>
<clipPath id="clip0_32_215">
<rect width="40" height="40" fill="white"/>
</clipPath>
</defs>
</svg>
