<svg width="40" height="40" viewBox="0 0 40 40" fill="none" xmlns="http://www.w3.org/2000/svg">
<g clip-path="url(#clip0_32_225)">
<path d="M3.03699 11.657H9.21652C9.54011 11.657 9.80246 11.3948 9.80246 11.0711C9.80246 10.7474 9.54011 10.4852 9.21652 10.4852H3.03699C2.71339 10.4852 2.45105 10.7474 2.45105 11.0711C2.45105 11.3948 2.71332 11.657 3.03699 11.657Z" fill="#09A66D"/>
<path d="M9.00481 14.4779H6.56372C6.24013 14.4779 5.97778 14.7402 5.97778 15.0638C5.97778 15.3875 6.24013 15.6498 6.56372 15.6498H9.00481C9.32841 15.6498 9.59075 15.3875 9.59075 15.0638C9.59075 14.7402 9.32841 14.4779 9.00481 14.4779Z" fill="#09A66D"/>
<path d="M0.585938 18.5411H6.56344C6.88703 18.5411 7.14937 18.2789 7.14937 17.9552C7.14937 17.6315 6.88703 17.3693 6.56344 17.3693H0.585938C0.262344 17.3693 0 17.6315 0 17.9552C0 18.2789 0.262344 18.5411 0.585938 18.5411Z" fill="#09A66D"/>
<path d="M9.80246 28.9288C9.80246 28.6052 9.54011 28.3429 9.21652 28.3429H3.03699C2.71339 28.3429 2.45105 28.6052 2.45105 28.9288C2.45105 29.2525 2.71339 29.5148 3.03699 29.5148H9.21652C9.54011 29.5148 9.80246 29.2525 9.80246 28.9288Z" fill="#09A66D"/>
<path d="M9.00481 24.3502H6.56372C6.24013 24.3502 5.97778 24.6125 5.97778 24.9362C5.97778 25.2598 6.24013 25.5221 6.56372 25.5221H9.00481C9.32841 25.5221 9.59075 25.2598 9.59075 24.9362C9.59075 24.6125 9.32841 24.3502 9.00481 24.3502Z" fill="#09A66D"/>
<path d="M7.14937 22.0447C7.14937 21.7211 6.88703 21.4588 6.56344 21.4588H0.585938C0.262344 21.4588 0 21.7211 0 22.0447C0 22.3684 0.262344 22.6307 0.585938 22.6307H6.56344C6.88703 22.6307 7.14937 22.3684 7.14937 22.0447Z" fill="#09A66D"/>
<path d="M24.9631 12.9555C25.2868 12.9555 25.5491 12.6932 25.5491 12.3695V11.4752C25.5491 11.1515 25.2868 10.8892 24.9631 10.8892C24.6395 10.8892 24.3772 11.1515 24.3772 11.4752V12.3695C24.3772 12.6932 24.6395 12.9555 24.9631 12.9555Z" fill="#09A66D"/>
<path d="M31.4058 13.5577C31.1769 13.3289 30.8059 13.3289 30.5771 13.5577L29.9447 14.1901C29.7159 14.419 29.7159 14.7899 29.9447 15.0188C30.1737 15.2476 30.5445 15.2475 30.7734 15.0188L31.4058 14.3863C31.6345 14.1575 31.6345 13.7866 31.4058 13.5577Z" fill="#09A66D"/>
<path d="M32.593 19.4141C32.2693 19.4141 32.0071 19.6763 32.0071 20C32.0071 20.3237 32.2693 20.5859 32.593 20.5859H33.4873C33.811 20.5859 34.0732 20.3237 34.0732 20C34.0732 19.6763 33.811 19.4141 33.4873 19.4141H32.593Z" fill="#09A66D"/>
<path d="M30.7734 24.9811C30.5445 24.7524 30.1735 24.7524 29.9447 24.9811C29.7159 25.21 29.7159 25.581 29.9447 25.8098L30.5771 26.4422C30.8061 26.6711 31.177 26.671 31.4058 26.4422C31.6346 26.2133 31.6346 25.8424 31.4058 25.6136L30.7734 24.9811Z" fill="#09A66D"/>
<path d="M24.3772 27.6304V28.5247C24.3772 28.8484 24.6395 29.1107 24.9631 29.1107C25.2868 29.1107 25.5491 28.8484 25.5491 28.5247V27.6304C25.5491 27.3068 25.2868 27.0445 24.9631 27.0445C24.6395 27.0445 24.3772 27.3068 24.3772 27.6304Z" fill="#09A66D"/>
<path d="M19.1534 24.9811L18.521 25.6136C18.2922 25.8425 18.2922 26.2134 18.521 26.4422C18.7499 26.6711 19.1208 26.671 19.3496 26.4422L19.982 25.8098C20.2108 25.5809 20.2108 25.21 19.982 24.9811C19.7532 24.7524 19.3822 24.7524 19.1534 24.9811Z" fill="#09A66D"/>
<path d="M16.4381 19.4141C16.1145 19.4141 15.8522 19.6763 15.8522 20C15.8522 20.3237 16.1145 20.5859 16.4381 20.5859H17.3325C17.6561 20.5859 17.9184 20.3237 17.9184 20C17.9184 19.6763 17.6561 19.4141 17.3325 19.4141H16.4381Z" fill="#09A66D"/>
<path d="M19.9821 14.1901L19.3497 13.5577C19.1209 13.3289 18.7499 13.3289 18.5211 13.5577C18.2923 13.7866 18.2923 14.1575 18.5211 14.3863L19.1535 15.0188C19.3824 15.2476 19.7534 15.2475 19.9821 15.0188C20.2109 14.7899 20.2109 14.419 19.9821 14.1901Z" fill="#09A66D"/>
<path d="M28.1139 20C28.1139 19.6764 27.8516 19.4141 27.528 19.4141H25.5491V15.0638C25.5491 14.7401 25.2868 14.4778 24.9631 14.4778C24.6395 14.4778 24.3772 14.7401 24.3772 15.0638V20C24.3772 20.3237 24.6395 20.586 24.9631 20.586H27.528C27.8516 20.586 28.1139 20.3237 28.1139 20Z" fill="#09A66D"/>
<path d="M36.0735 19.9033C36.3965 19.8837 36.6424 19.6059 36.6228 19.283C36.2501 13.1343 31.1285 8.31781 24.9631 8.31781C18.5215 8.31781 13.2809 13.5584 13.2809 20.0001C13.2809 26.4416 18.5215 31.6823 24.9631 31.6823C30.7341 31.6823 35.6584 27.454 36.515 21.7481C36.5631 21.4281 36.3426 21.1298 36.0225 21.0817C35.7033 21.0338 35.4042 21.2541 35.3561 21.5742C34.5866 26.7003 30.1603 30.5105 24.9631 30.5105C19.1677 30.5105 14.4528 25.7955 14.4528 20.0002C14.4528 14.2048 19.1677 9.48976 24.9631 9.48976C30.51 9.48976 35.1178 13.8227 35.4531 19.3541C35.4726 19.6769 35.7501 19.922 36.0735 19.9033Z" fill="#09A66D"/>
<path d="M24.9635 4.9632C22.9025 4.9632 20.8832 5.39077 19.0246 6.19038H8.6864C8.36281 6.19038 8.10046 6.45265 8.10046 6.77632C8.10046 7.09999 8.36281 7.36226 8.6864 7.36226H16.8202C15.7205 8.07007 14.708 8.92382 13.8154 9.90945C13.5982 10.1492 13.6165 10.5198 13.8563 10.737C14.0962 10.9543 14.4666 10.9359 14.684 10.6961C17.3091 7.79749 21.0559 6.13507 24.9635 6.13507C32.6087 6.13507 38.8285 12.3548 38.8285 20C38.8285 27.6451 32.6087 33.8649 24.9635 33.8649C17.3184 33.8649 11.0986 27.6452 11.0986 20C11.0986 17.3228 11.8634 14.7244 13.3101 12.4855C13.4857 12.2137 13.4077 11.851 13.1359 11.6754C12.8641 11.4998 12.5015 11.5776 12.3258 11.8495C10.7562 14.2783 9.92671 17.0966 9.92671 20C9.92671 25.2942 12.6772 29.9577 16.824 32.6377H8.68648C8.36289 32.6377 8.10054 32.9 8.10054 33.2237C8.10054 33.5473 8.36289 33.8096 8.68648 33.8096H19.0166C20.8416 34.5986 22.8523 35.0368 24.9636 35.0368C33.2548 35.0368 40.0004 28.2913 40.0004 20C40.0004 11.7087 33.2548 4.9632 24.9635 4.9632Z" fill="#09A66D"/>
</g>
<defs>
<clipPath id="clip0_32_225">
<rect width="40" height="40" fill="white"/>
</clipPath>
</defs>
</svg>
