<svg width="80" height="80" viewBox="0 0 80 80" fill="none" xmlns="http://www.w3.org/2000/svg">
<rect width="80" height="80" rx="40" fill="#F3FBF8"/>
<g clip-path="url(#clip0_42758_84)">
<path d="M57.8771 32.3417H51.0939C49.9234 32.3417 48.971 33.2945 48.971 34.4658V42.2731H46.4338C46.5748 41.7605 46.6271 41.1559 46.5928 40.4523V40.4523C46.5377 37.4789 45.9982 34.973 44.9891 33.0041C44.2055 31.4754 43.291 30.5589 42.5063 30.011C43.4273 29.0641 43.9598 27.717 43.9598 26.1633C43.9598 23.3679 41.7299 21.0938 38.9891 21.0938C36.2482 21.0938 34.0183 23.3679 34.0183 26.1633C34.0183 26.487 34.2806 26.7492 34.6042 26.7492H35.0023C34.9657 26.9703 34.9462 27.1956 34.9462 27.4245C34.9462 29.3945 36.3538 31.0409 38.2149 31.4099C38.0198 32.1343 37.9229 32.9884 37.9233 33.9587L36.4619 35.2157L32.906 35.5033L28.8042 34.1473C28.4283 34.0223 28.0022 33.8811 27.6325 34.1477C27.2682 34.4105 27.2682 34.8708 27.2682 35.022V38.0716C27.2682 38.3952 27.5305 38.6575 27.8541 38.6575H28.5517L27.4818 42.3547C27.3919 42.6655 27.5709 42.9905 27.8818 43.0804C28.1928 43.1708 28.5176 42.9912 28.6076 42.6805L29.7718 38.6575H31.4376C29.3657 44.9756 30.5479 49.193 32.365 53.461H31.3117L26.9248 48.5559L27.8524 45.3512C27.9424 45.0403 27.7634 44.7154 27.4525 44.6255C27.1416 44.5355 26.8167 44.7146 26.7267 45.0254L25.8395 48.0908C23.0952 48.045 20.6405 49.937 20.015 52.6591C19.9426 52.9745 20.1394 53.2888 20.4546 53.3613L21.2864 53.5527C21.0739 55.7599 22.5274 57.8423 24.7441 58.3526C25.0808 58.4302 25.4203 58.4684 25.7575 58.4684C26.5891 58.4684 27.406 58.2353 28.1286 57.7824C28.9766 57.251 29.6085 56.4698 29.9505 55.5465L30.6068 55.6975C30.8023 55.7427 30.9878 55.7656 31.1731 55.6659C31.3455 55.573 31.4602 55.4055 31.5031 55.2163C31.5444 55.0245 31.5758 54.8296 31.5976 54.6329H43.8521C44.244 57.0694 46.317 58.906 48.7929 58.906C51.2688 58.906 53.3419 57.0694 53.7337 54.6329H54.1809C54.1809 54.6329 54.2697 54.6339 54.2899 54.6339C54.4575 54.6339 54.6995 54.6153 54.8983 54.4131C54.9977 54.312 55.1145 54.1309 55.1055 53.8434C55.089 53.2931 55.0064 52.7615 54.8655 52.2562C55.3322 49.4227 54.8831 47.697 54.2174 46.3465C54.6383 46.0706 54.9173 45.5953 54.9173 45.0553V43.4449H57.877C59.0475 43.4449 59.9998 42.4921 59.9998 41.3209V34.4657C60 33.2945 59.0477 32.3417 57.8771 32.3417ZM27.5063 56.7896C26.7563 57.2597 25.8688 57.4091 25.0072 57.2108H25.0071C23.4213 56.8458 22.3634 55.3916 22.4405 53.8193L28.7962 55.2821C28.5332 55.9012 28.0883 56.4249 27.5063 56.7896ZM30.4382 54.4563L21.3238 52.359C22.0271 50.4329 23.9199 49.1579 25.9889 49.2676L30.4538 54.2598C30.4499 54.3257 30.4448 54.3912 30.4382 54.4563ZM39.2886 44.2458C39.1185 44.6944 39.1185 45.2474 39.1185 46.013V48.2241H36.973V45.1906C36.973 41.7611 38.8447 41.1499 39.6847 41.0491H45.4291C45.406 41.8274 45.2304 42.3807 44.897 42.7319C44.5084 43.1411 43.8434 43.3405 42.8641 43.3414L40.7609 43.3436C40.0109 43.3437 39.5155 43.6471 39.2886 44.2458ZM39.1185 49.3959V50.7949C39.1132 50.7949 39.1077 50.7949 39.1021 50.7949H34.9402C34.987 50.361 35.1221 50.0252 35.3441 49.7929C35.6742 49.4474 36.1392 49.3959 36.387 49.3959H39.1185ZM45.4033 39.8773H40.0746C39.8606 39.2039 39.6698 38.4666 39.513 37.7087L41.133 36.6572C42.0174 36.0829 42.4775 35.2714 42.3953 34.4307C42.3225 33.6855 41.8159 33.0198 41.1046 32.7348C40.4551 32.4747 39.7559 32.5564 39.138 32.9515C39.189 32.391 39.2838 31.8907 39.421 31.466C39.6708 31.4402 39.9188 31.3914 40.1624 31.3198C40.6583 31.2046 41.1165 31.0211 41.5302 30.7777C42.6587 31.452 45.1407 33.6388 45.4033 39.8773ZM35.233 25.5774C35.5094 23.7052 37.0884 22.2657 38.9891 22.2657C41.0838 22.2657 42.788 24.0142 42.788 26.1634C42.788 27.9113 41.9498 29.3202 40.5982 29.9402V26.8571C40.5982 26.3233 40.3939 25.6684 39.4209 25.5798C39.4033 25.5782 39.3855 25.5774 39.3678 25.5774H35.233ZM36.1181 27.4245C36.1181 27.1933 36.1445 26.9674 36.1963 26.7493H39.3391C39.3752 26.7532 39.4016 26.7574 39.4205 26.7613C39.4236 26.783 39.4263 26.8142 39.4263 26.8571V30.2849C39.2866 30.3055 39.1462 30.3159 39.0058 30.3159C39.0045 30.3159 39.0031 30.3159 39.0019 30.3159C37.4116 30.3145 36.1181 29.018 36.1181 27.4245ZM35.3585 36.4808L36.7463 36.3685C36.87 36.3586 36.9873 36.3096 37.0814 36.2288L39.5861 34.0745L39.5865 34.0741C39.8287 33.8654 40.0872 33.7584 40.3389 33.7584C40.4509 33.7584 40.5616 33.7796 40.6689 33.8226C40.9785 33.9466 41.1984 34.23 41.2291 34.5445C41.2678 34.9404 41.007 35.3416 40.4951 35.6741L37.7041 37.4857H35.3587V36.4808H35.3585ZM32.8823 36.6811L34.1866 36.5756V37.4859H32.6709C32.4745 37.4859 32.4266 37.3226 32.4209 37.1856C32.4177 37.108 32.4251 36.7186 32.8823 36.6811ZM31.4955 36.2766C31.319 36.5659 31.2366 36.9045 31.2501 37.2336C31.2536 37.3188 31.2645 37.4009 31.2796 37.4809C31.2796 37.4826 31.2787 37.4842 31.279 37.4858H28.4402V35.2613L31.4977 36.272C31.4968 36.2736 31.4963 36.2751 31.4955 36.2766ZM32.6742 38.6577H37.8774C37.9906 38.6577 38.1015 38.6248 38.1964 38.5632L38.4616 38.391C38.5892 38.9549 38.7345 39.5037 38.8928 40.022C37.6978 40.3747 35.801 41.5146 35.801 45.1905V48.2828C35.3899 48.3658 34.9036 48.5575 34.4968 48.9832C34.068 49.432 33.823 50.04 33.7643 50.7948H32.5823C31.3912 47.3622 30.9382 43.7094 32.6742 38.6577ZM33.64 53.4591C33.4234 52.961 33.2147 52.4648 33.0181 51.9668H39.102C39.8905 51.9668 40.2903 51.6078 40.2903 50.8999V48.8099V46.5988H44.9152C45.2389 46.5988 45.5012 46.3366 45.5012 46.0129C45.5012 45.6892 45.2389 45.427 44.9152 45.427H40.2945C40.302 45.0941 40.3234 44.822 40.3844 44.6612C40.414 44.583 40.4396 44.5155 40.7614 44.5155L42.8652 44.5133C44.1827 44.512 45.1253 44.1933 45.7468 43.5387C45.7755 43.5084 45.8027 43.4766 45.83 43.445H49.557H53.7457V45.0554C53.7457 45.2568 53.5759 45.427 53.375 45.427H47.5418C47.2181 45.427 46.9559 45.6892 46.9559 46.0129C46.9559 46.3366 47.2181 46.5988 47.5418 46.5988H53.0307C53.4938 47.4584 53.9104 48.528 53.8856 50.218C52.7264 48.6077 50.8498 47.5723 48.7199 47.5723C47.0095 47.5723 45.4045 48.2433 44.2005 49.4616C43.1321 50.5427 42.4905 51.9457 42.3584 53.461L33.64 53.4591ZM48.793 57.7343C46.9612 57.7343 45.4164 56.4145 45.0427 54.633H52.5433C52.1695 56.4144 50.6246 57.7343 48.793 57.7343ZM53.2089 53.4612H44.3772H43.5354C43.823 50.8117 46.0384 48.7442 48.7199 48.7442C51.0742 48.7442 53.0513 50.2966 53.7061 52.4698C53.7082 52.4767 53.7103 52.4836 53.7127 52.4904C53.8052 52.8022 53.8706 53.1267 53.906 53.4612H53.2089ZM58.8281 41.3209C58.8281 41.846 58.4015 42.2731 57.8771 42.2731H50.1429V39.2473H58.8281V41.3209ZM58.8281 38.0754H50.1429V36.8292H58.8281V38.0754ZM58.8281 35.6573H50.1429V34.4658C50.1429 33.9407 50.5695 33.5136 51.0939 33.5136H57.8771C58.4015 33.5136 58.8281 33.9408 58.8281 34.4658V35.6573Z" fill="#09A66D"/>
</g>
<defs>
<clipPath id="clip0_42758_84">
<rect width="40" height="40" fill="white" transform="translate(20 20)"/>
</clipPath>
</defs>
</svg>
