<svg width="56" height="57" viewBox="0 0 56 57" fill="none" xmlns="http://www.w3.org/2000/svg">
<rect y="0.5" width="56" height="56" rx="28" fill="#F3FBF8"/>
<g clip-path="url(#clip0_32_166)">
<path d="M28.0023 12.5C23.4308 12.5 19.6939 16.2369 19.6939 20.8084C19.6939 25.3799 23.4308 29.1168 28.0023 29.1168C32.5737 29.1168 36.3107 25.3799 36.3107 20.8084C36.3107 16.2369 32.5737 12.5 28.0023 12.5Z" fill="#09A66D"/>
<path d="M42.2607 35.7563C42.043 35.2121 41.7528 34.7041 41.4263 34.2325C39.7573 31.7653 37.1814 30.1327 34.2789 29.7336C33.9161 29.6973 33.517 29.7698 33.2268 29.9875C31.7029 31.1123 29.8889 31.6927 28.0022 31.6927C26.1156 31.6927 24.3015 31.1123 22.7777 29.9875C22.4874 29.7698 22.0884 29.661 21.7256 29.7336C18.8231 30.1327 16.2109 31.7653 14.5782 34.2325C14.2517 34.7041 13.9614 35.2484 13.7438 35.7563C13.6349 35.974 13.6712 36.228 13.78 36.4457C14.0703 36.9536 14.4331 37.4616 14.7596 37.8969C15.2675 38.5863 15.8118 39.203 16.4286 39.7835C16.9365 40.2914 17.517 40.7631 18.0975 41.2348C20.9637 43.3754 24.4104 44.5 27.966 44.5C31.5215 44.5 34.9683 43.3753 37.8345 41.2348C38.4149 40.7994 38.9954 40.2914 39.5034 39.7835C40.0839 39.203 40.6644 38.5862 41.1724 37.8969C41.5352 37.4252 41.8618 36.9536 42.152 36.4457C42.3333 36.228 42.3695 35.9739 42.2607 35.7563Z" fill="#09A66D"/>
</g>
<defs>
<clipPath id="clip0_32_166">
<rect width="32" height="32" fill="white" transform="translate(12 12.5)"/>
</clipPath>
</defs>
</svg>
