<svg width="80" height="80" viewBox="0 0 80 80" fill="none" xmlns="http://www.w3.org/2000/svg">
<rect width="80" height="80" rx="40" fill="#F3FBF8"/>
<g clip-path="url(#clip0_42758_87)">
<path d="M23.037 31.657H29.2165C29.5401 31.657 29.8025 31.3948 29.8025 31.0711C29.8025 30.7474 29.5401 30.4852 29.2165 30.4852H23.037C22.7134 30.4852 22.451 30.7474 22.451 31.0711C22.451 31.3948 22.7133 31.657 23.037 31.657Z" fill="#09A66D"/>
<path d="M29.0048 34.4779H26.5637C26.2401 34.4779 25.9778 34.7402 25.9778 35.0638C25.9778 35.3875 26.2401 35.6498 26.5637 35.6498H29.0048C29.3284 35.6498 29.5908 35.3875 29.5908 35.0638C29.5908 34.7402 29.3284 34.4779 29.0048 34.4779Z" fill="#09A66D"/>
<path d="M20.5859 38.5411H26.5634C26.887 38.5411 27.1494 38.2789 27.1494 37.9552C27.1494 37.6315 26.887 37.3693 26.5634 37.3693H20.5859C20.2623 37.3693 20 37.6315 20 37.9552C20 38.2789 20.2623 38.5411 20.5859 38.5411Z" fill="#09A66D"/>
<path d="M29.8025 48.9288C29.8025 48.6052 29.5401 48.3429 29.2165 48.3429H23.037C22.7134 48.3429 22.451 48.6052 22.451 48.9288C22.451 49.2525 22.7134 49.5148 23.037 49.5148H29.2165C29.5401 49.5148 29.8025 49.2525 29.8025 48.9288Z" fill="#09A66D"/>
<path d="M29.0048 44.3502H26.5637C26.2401 44.3502 25.9778 44.6125 25.9778 44.9362C25.9778 45.2598 26.2401 45.5221 26.5637 45.5221H29.0048C29.3284 45.5221 29.5908 45.2598 29.5908 44.9362C29.5908 44.6125 29.3284 44.3502 29.0048 44.3502Z" fill="#09A66D"/>
<path d="M27.1494 42.0447C27.1494 41.7211 26.887 41.4588 26.5634 41.4588H20.5859C20.2623 41.4588 20 41.7211 20 42.0447C20 42.3684 20.2623 42.6307 20.5859 42.6307H26.5634C26.887 42.6307 27.1494 42.3684 27.1494 42.0447Z" fill="#09A66D"/>
<path d="M44.9631 32.9555C45.2868 32.9555 45.5491 32.6932 45.5491 32.3695V31.4752C45.5491 31.1515 45.2868 30.8892 44.9631 30.8892C44.6395 30.8892 44.3772 31.1515 44.3772 31.4752V32.3695C44.3772 32.6932 44.6395 32.9555 44.9631 32.9555Z" fill="#09A66D"/>
<path d="M51.4058 33.5577C51.1769 33.3289 50.8059 33.3289 50.5771 33.5577L49.9447 34.1901C49.7159 34.419 49.7159 34.7899 49.9447 35.0188C50.1737 35.2476 50.5445 35.2475 50.7734 35.0188L51.4058 34.3863C51.6345 34.1575 51.6345 33.7866 51.4058 33.5577Z" fill="#09A66D"/>
<path d="M52.593 39.4141C52.2693 39.4141 52.0071 39.6763 52.0071 40C52.0071 40.3237 52.2693 40.5859 52.593 40.5859H53.4873C53.811 40.5859 54.0732 40.3237 54.0732 40C54.0732 39.6763 53.811 39.4141 53.4873 39.4141H52.593Z" fill="#09A66D"/>
<path d="M50.7734 44.9811C50.5445 44.7524 50.1735 44.7524 49.9447 44.9811C49.7159 45.21 49.7159 45.581 49.9447 45.8098L50.5771 46.4422C50.8061 46.6711 51.177 46.671 51.4058 46.4422C51.6346 46.2133 51.6346 45.8424 51.4058 45.6136L50.7734 44.9811Z" fill="#09A66D"/>
<path d="M44.3772 47.6304V48.5247C44.3772 48.8484 44.6395 49.1107 44.9631 49.1107C45.2868 49.1107 45.5491 48.8484 45.5491 48.5247V47.6304C45.5491 47.3068 45.2868 47.0445 44.9631 47.0445C44.6395 47.0445 44.3772 47.3068 44.3772 47.6304Z" fill="#09A66D"/>
<path d="M39.1534 44.9811L38.521 45.6136C38.2922 45.8425 38.2922 46.2134 38.521 46.4422C38.7499 46.6711 39.1208 46.671 39.3496 46.4422L39.982 45.8098C40.2108 45.5809 40.2108 45.21 39.982 44.9811C39.7532 44.7524 39.3822 44.7524 39.1534 44.9811Z" fill="#09A66D"/>
<path d="M36.4381 39.4141C36.1145 39.4141 35.8522 39.6763 35.8522 40C35.8522 40.3237 36.1145 40.5859 36.4381 40.5859H37.3325C37.6561 40.5859 37.9184 40.3237 37.9184 40C37.9184 39.6763 37.6561 39.4141 37.3325 39.4141H36.4381Z" fill="#09A66D"/>
<path d="M39.9821 34.1901L39.3497 33.5577C39.1209 33.3289 38.7499 33.3289 38.5211 33.5577C38.2923 33.7866 38.2923 34.1575 38.5211 34.3863L39.1535 35.0188C39.3824 35.2476 39.7534 35.2475 39.9821 35.0188C40.2109 34.7899 40.2109 34.419 39.9821 34.1901Z" fill="#09A66D"/>
<path d="M48.1139 40C48.1139 39.6764 47.8516 39.4141 47.528 39.4141H45.5491V35.0638C45.5491 34.7401 45.2868 34.4778 44.9631 34.4778C44.6395 34.4778 44.3772 34.7401 44.3772 35.0638V40C44.3772 40.3237 44.6395 40.586 44.9631 40.586H47.528C47.8516 40.586 48.1139 40.3237 48.1139 40Z" fill="#09A66D"/>
<path d="M56.0735 39.9033C56.3965 39.8837 56.6424 39.6059 56.6228 39.283C56.2501 33.1343 51.1285 28.3178 44.9631 28.3178C38.5215 28.3178 33.2809 33.5584 33.2809 40.0001C33.2809 46.4416 38.5215 51.6823 44.9631 51.6823C50.7341 51.6823 55.6584 47.454 56.515 41.7481C56.5631 41.4281 56.3426 41.1298 56.0225 41.0817C55.7033 41.0338 55.4042 41.2541 55.3561 41.5742C54.5866 46.7003 50.1603 50.5105 44.9631 50.5105C39.1677 50.5105 34.4528 45.7955 34.4528 40.0002C34.4528 34.2048 39.1677 29.4898 44.9631 29.4898C50.51 29.4898 55.1178 33.8227 55.4531 39.3541C55.4726 39.6769 55.7501 39.922 56.0735 39.9033Z" fill="#09A66D"/>
<path d="M44.9635 24.9632C42.9025 24.9632 40.8832 25.3908 39.0246 26.1904H28.6864C28.3628 26.1904 28.1005 26.4526 28.1005 26.7763C28.1005 27.1 28.3628 27.3623 28.6864 27.3623H36.8202C35.7205 28.0701 34.708 28.9238 33.8154 29.9094C33.5982 30.1492 33.6165 30.5198 33.8563 30.737C34.0962 30.9543 34.4666 30.9359 34.684 30.6961C37.3091 27.7975 41.0559 26.1351 44.9635 26.1351C52.6087 26.1351 58.8285 32.3548 58.8285 40C58.8285 47.6451 52.6087 53.8649 44.9635 53.8649C37.3184 53.8649 31.0986 47.6452 31.0986 40C31.0986 37.3228 31.8634 34.7244 33.3101 32.4855C33.4857 32.2137 33.4077 31.851 33.1359 31.6754C32.8641 31.4998 32.5015 31.5776 32.3258 31.8495C30.7562 34.2783 29.9267 37.0966 29.9267 40C29.9267 45.2942 32.6772 49.9577 36.824 52.6377H28.6865C28.3629 52.6377 28.1005 52.9 28.1005 53.2237C28.1005 53.5473 28.3629 53.8096 28.6865 53.8096H39.0166C40.8416 54.5986 42.8523 55.0368 44.9636 55.0368C53.2548 55.0368 60.0004 48.2913 60.0004 40C60.0004 31.7087 53.2548 24.9632 44.9635 24.9632Z" fill="#09A66D"/>
</g>
<defs>
<clipPath id="clip0_42758_87">
<rect width="40" height="40" fill="white" transform="translate(20 20)"/>
</clipPath>
</defs>
</svg>
