<svg width="80" height="80" viewBox="0 0 80 80" fill="none" xmlns="http://www.w3.org/2000/svg">
<rect width="80" height="80" rx="40" fill="white"/>
<g clip-path="url(#clip0_32_247)">
<path d="M34.686 47.8216H45.0771C45.4008 47.8216 45.6631 47.5593 45.6631 47.2357C45.6631 46.9121 45.4008 46.6498 45.0771 46.6498H34.686C34.3624 46.6498 34.1 46.9121 34.1 47.2357C34.1 47.5593 34.3624 47.8216 34.686 47.8216ZM36.522 34.3792H43.4784C44.0089 34.3792 44.4688 34.0381 44.6229 33.5305L46.0829 28.7201C46.1941 28.3539 46.1271 27.9676 45.8991 27.6602C45.6712 27.3529 45.321 27.1766 44.9384 27.1766H44.4187L43.3567 24.5218C43.1126 23.9105 42.5296 23.5156 41.8713 23.5156H38.1291C37.4709 23.5156 36.8878 23.9105 36.6437 24.5215L35.5817 27.1766H35.062C34.6793 27.1766 34.3292 27.3528 34.1012 27.6602C33.8732 27.9677 33.8063 28.3539 33.9174 28.7201L35.3774 33.5305C35.5315 34.0381 35.9914 34.3792 36.522 34.3792ZM35.0425 28.3582C35.0602 28.3343 38.2296 28.3562 38.2522 28.3484C38.5758 28.3484 38.8381 28.0861 38.8381 27.7625C38.8381 27.4389 38.5758 27.1766 38.2522 27.1766H36.8438L37.7317 24.9566C37.797 24.7931 37.953 24.6875 38.1291 24.6875H41.8713C42.0474 24.6875 42.2033 24.7931 42.2686 24.9567L43.1566 27.1766H40.9865C40.6628 27.1766 40.4006 27.4389 40.4006 27.7625C40.4006 28.0861 40.6628 28.3484 40.9865 28.3484C41.0062 28.3484 44.9428 28.338 44.9578 28.3582C44.9753 28.3817 43.5015 33.1655 43.5015 33.1902C43.5015 33.2423 36.5019 33.2005 36.4988 33.1902C36.4913 33.1656 35.0251 28.3816 35.0425 28.3582ZM34.686 53.667C34.3624 53.667 34.1 53.9293 34.1 54.2529C34.1 54.5765 34.3624 54.8388 34.686 54.8388H45.0771C45.4008 54.8388 45.6631 54.5765 45.6631 54.2529C45.6631 53.9293 45.4008 53.667 45.0771 53.667H34.686ZM50.3506 51.9091C50.3506 51.5855 50.0883 51.3232 49.7646 51.3232H34.686C34.3624 51.3232 34.1 51.5855 34.1 51.9091C34.1 52.2327 34.3624 52.4951 34.686 52.4951H49.7646C50.0883 52.4951 50.3506 52.2327 50.3506 51.9091ZM53.2803 45.6489C53.6039 45.6489 53.8662 45.3866 53.8662 45.063V22.9297C53.8662 21.3142 52.552 20 50.9365 20H29.0638C27.4484 20 26.1342 21.3142 26.1342 22.9297V57.0703C26.1342 58.6858 27.4484 60 29.0638 60H50.9366C52.5521 60 53.8663 58.6858 53.8663 57.0703V47.7973C53.8663 47.4737 53.604 47.2114 53.2803 47.2114C52.9567 47.2114 52.6944 47.4737 52.6944 47.7973V57.0703C52.6944 58.0396 51.9058 58.8281 50.9366 58.8281H29.0638C28.0945 58.8281 27.306 58.0396 27.306 57.0703V22.9297C27.306 21.9604 28.0945 21.1719 29.0638 21.1719H50.9366C51.9058 21.1719 52.6944 21.9604 52.6944 22.9297V45.063C52.6943 45.3866 52.9567 45.6489 53.2803 45.6489ZM32.3695 48.271C32.081 48.2746 31.7785 48.2774 31.5011 48.2788C31.6981 48.0113 31.9474 47.6663 32.2581 47.2223C32.5306 46.833 32.7234 46.4805 32.7736 46.1144C32.7818 46.0544 32.7976 45.9466 32.7976 45.8894C32.7976 45.0163 32.0874 44.3061 31.2143 44.3061C30.4595 44.3061 29.8061 44.8432 29.6607 45.5831C29.5984 45.9006 29.8052 46.2087 30.1228 46.271C30.4403 46.3334 30.7483 46.1266 30.8106 45.809C30.8483 45.6171 31.0181 45.478 31.2143 45.478C31.4313 45.478 31.6097 45.6469 31.6247 45.8602C31.6395 46.0707 31.5321 46.2158 31.298 46.5503C30.6824 47.4299 30.3151 47.9108 30.1178 48.1691C29.7734 48.6201 29.6088 49.2079 30.2054 49.4067C30.2824 49.4323 31.8291 49.4498 32.3842 49.4428C32.7078 49.4388 32.9668 49.1731 32.9628 48.8495C32.9587 48.5259 32.6903 48.2648 32.3695 48.271ZM49.7646 44.306H34.686C34.3624 44.306 34.1 44.5684 34.1 44.892C34.1 45.2155 34.3624 45.4779 34.686 45.4779H49.7646C50.0883 45.4779 50.3506 45.2155 50.3506 44.892C50.3506 44.5684 50.0883 44.306 49.7646 44.306ZM31.3063 51.3232C30.5514 51.3232 29.8981 51.8603 29.7527 52.6002C29.6903 52.9177 29.8971 53.2258 30.2147 53.2881C30.532 53.3504 30.8402 53.1437 30.9026 52.8261C30.9402 52.6342 31.11 52.4951 31.3063 52.4951C31.5331 52.4951 31.7177 52.6796 31.7177 52.9065C31.7177 53.1334 31.5331 53.3179 31.3063 53.3179C30.9827 53.3179 30.7203 53.5802 30.7203 53.9038C30.7203 54.2274 30.9827 54.4898 31.3063 54.4898C31.5331 54.4898 31.7177 54.6743 31.7177 54.9012C31.7177 55.128 31.5331 55.3126 31.3063 55.3126C31.1021 55.3126 30.927 55.1607 30.8988 54.959C30.8962 54.9401 30.8949 54.9206 30.8949 54.9012C30.8949 54.5776 30.6325 54.3152 30.3089 54.3152C29.9853 54.3152 29.723 54.5776 29.723 54.9012C29.723 55.7618 30.4371 56.4845 31.3063 56.4845C32.1793 56.4845 32.8895 55.7742 32.8895 54.9012C32.8895 54.5234 32.7561 54.1763 32.5344 53.9038C32.7561 53.6313 32.8895 53.2843 32.8895 52.9065C32.8895 52.0334 32.1793 51.3232 31.3063 51.3232ZM31.3063 42.3889C31.6299 42.3889 31.8922 42.1266 31.8922 41.803V37.9053C31.8922 37.5817 31.6299 37.3194 31.3063 37.3194H30.4731C30.1495 37.3194 29.8872 37.5817 29.8872 37.9053C29.8872 38.2289 30.1495 38.4913 30.4731 38.4913H30.7203V41.803C30.7203 42.1266 30.9827 42.3889 31.3063 42.3889ZM34.686 40.835H45.0771C45.4008 40.835 45.6631 40.5727 45.6631 40.2491C45.6631 39.9255 45.4008 39.6631 45.0771 39.6631H34.686C34.3624 39.6631 34.1 39.9255 34.1 40.2491C34.1 40.5727 34.3624 40.835 34.686 40.835ZM49.7646 37.3194H34.686C34.3624 37.3194 34.1 37.5817 34.1 37.9053C34.1 38.2289 34.3624 38.4913 34.686 38.4913H49.7646C50.0883 38.4913 50.3506 38.2289 50.3506 37.9053C50.3506 37.5817 50.0883 37.3194 49.7646 37.3194Z" fill="#09A66D"/>
</g>
<defs>
<clipPath id="clip0_32_247">
<rect width="40" height="40" fill="white" transform="translate(20 20)"/>
</clipPath>
</defs>
</svg>
