<svg width="56" height="57" viewBox="0 0 56 57" fill="none" xmlns="http://www.w3.org/2000/svg">
<rect y="0.5" width="56" height="56" rx="28" fill="#F3FBF8"/>
<g clip-path="url(#clip0_32_181)">
<path d="M43.9542 24.8286C43.8439 24.4891 43.5505 24.2418 43.1974 24.1905L33.2773 22.7489L28.8408 13.7597C28.6829 13.4397 28.357 13.2372 28.0001 13.2372C27.6433 13.2372 27.3174 13.4397 27.1594 13.7597L22.7227 22.7489L12.8028 24.1905C12.4497 24.2418 12.1562 24.4891 12.046 24.8285C11.9357 25.168 12.0277 25.5405 12.2832 25.7895L19.4612 32.7867L17.767 42.6668C17.7067 43.0186 17.8513 43.374 18.14 43.5838C18.4286 43.7935 18.8113 43.8213 19.1273 43.6551L28.0001 38.9903L36.8726 43.6551C37.0098 43.7272 37.1595 43.7628 37.3088 43.7628C37.5032 43.7628 37.6967 43.7024 37.8599 43.5838C38.1486 43.374 38.2932 43.0185 38.2329 42.6668L36.5382 32.7867L43.7169 25.7895C43.9725 25.5405 44.0645 25.1679 43.9542 24.8286Z" fill="#FED42D"/>
<path d="M43.9542 24.8286C43.8439 24.4891 43.5506 24.2418 43.1974 24.1905L33.2773 22.7489L28.8408 13.7597C28.6829 13.4397 28.357 13.2372 28.0002 13.2372V38.9903L36.8727 43.6551C37.0099 43.7273 37.1596 43.7628 37.3089 43.7628C37.5033 43.7628 37.6968 43.7025 37.86 43.5839C38.1487 43.3741 38.2933 43.0186 38.233 42.6669L36.5382 32.7867L43.7169 25.7895C43.9725 25.5405 44.0645 25.1679 43.9542 24.8286Z" fill="#FCBF29"/>
</g>
<defs>
<clipPath id="clip0_32_181">
<rect width="32" height="32" fill="white" transform="translate(12 12.5)"/>
</clipPath>
</defs>
</svg>
