<svg width="56" height="57" viewBox="0 0 56 57" fill="none" xmlns="http://www.w3.org/2000/svg">
<rect y="0.5" width="56" height="56" rx="28" fill="#F3FBF8"/>
<path d="M34.4722 22.5H35.9217C37.1292 22.5 38.1392 21.6395 38.3712 20.5H36.9217C35.7147 20.5 34.7047 21.3605 34.4722 22.5Z" fill="#09A66D"/>
<path d="M23 18C23.0495 18 23.0975 18.006 23.147 18.0075L23.498 14.4975C23.5 14.203 23.297 14 23.0475 14H22.953C22.703 14 22.5 14.203 22.5 14.4525L22.8535 18.0075C22.9025 18.006 22.9505 18 23 18Z" fill="#09A66D"/>
<path d="M19 28.5C19 28.3295 19.0175 28.163 19.045 28H18V28.3425C18.3745 28.521 18.713 28.762 19 29.055V28.5Z" fill="#09A66D"/>
<path d="M18.5951 16.2781L20.3056 18.7961C20.4396 18.7096 20.5781 18.6296 20.7206 18.5561L19.6921 15.7276C19.6846 15.7076 19.6771 15.6891 19.6676 15.6711C19.5971 15.5301 19.4851 15.4326 19.3456 15.3866C19.2061 15.3401 19.0576 15.3511 18.9271 15.4166L18.8021 15.4791C18.5316 15.6141 18.4216 15.9441 18.5571 16.2146C18.5681 16.2346 18.5811 16.2571 18.5951 16.2781Z" fill="#09A66D"/>
<path d="M20.691 27H26.26L26.916 23.852C26.9715 23.584 27 23.3095 27 23.036C27 20.7945 25.2055 19 23 19C20.7945 19 19 20.7945 19 23C19 23.3095 19.0285 23.584 19.084 23.852L19.662 26.625C20.212 25.94 21.055 25.5 22 25.5V26.5C21.4975 26.5 21.043 26.6925 20.691 27ZM24.5 21H25.5V22H24.5V21ZM24.5 23H25.5V24H24.5V23ZM24.5 25H25.5V26H24.5V25Z" fill="#09A66D"/>
<path d="M17.5002 31H18.9497C18.7172 29.8605 17.7077 29 16.5002 29H15.0507C15.2827 30.1395 16.2927 31 17.5002 31Z" fill="#09A66D"/>
<path d="M27.4055 16.2765C27.4185 16.2565 27.432 16.2345 27.443 16.212C27.5775 15.9435 27.4675 15.6135 27.197 15.4785L27.072 15.416C26.941 15.351 26.7935 15.3395 26.6535 15.386C26.5145 15.4325 26.402 15.53 26.3365 15.661C26.3225 15.689 26.3145 15.7075 26.3075 15.7265L25.279 18.555C25.4215 18.6285 25.56 18.7085 25.6945 18.795L27.4055 16.2765Z" fill="#09A66D"/>
<path d="M26.4921 37H40.5001V34H25.8261C26.2676 34.9285 26.4916 35.949 26.4921 37ZM38.5001 35H39.5001V36H38.5001V35Z" fill="#09A66D"/>
<path d="M25.2316 41H39.0001C39.8271 41 40.5001 40.327 40.5001 39.5V38H26.4281C26.2686 39.1015 25.8476 40.123 25.2316 41ZM38.5001 39H39.5001V40H38.5001V39Z" fill="#09A66D"/>
<path d="M20.071 28C20.029 28.161 20 28.3265 20 28.5V29H40.5H41H42.5V28H20.071Z" fill="#09A66D"/>
<path d="M20 31.4335C20.1005 31.409 20.201 31.3835 20.2925 31.344C21.8175 30.6915 23.5925 31.0835 24.7055 32.321C24.8995 32.5365 25.0735 32.7655 25.237 32.9995H40.5V29.9995H20V31.4335ZM38.5 31H39.5V32H38.5V31Z" fill="#09A66D"/>
<path d="M23.9625 32.9899C23.1485 32.0849 21.801 31.7854 20.686 32.2634C20.4715 32.3549 20.2395 32.4179 20 32.4564V33.3979C20.4965 33.2129 20.968 32.8234 21.147 32.6454L21.8535 33.3534C21.7365 33.4709 20.6735 34.4999 19.5 34.4999C18.3265 34.4999 17.2635 33.4709 17.1465 33.3534L17.853 32.6454C18.032 32.8229 18.5035 33.2124 19 33.3979V31.9999H17.5C17.3305 31.9999 17.1655 31.9839 17.0025 31.9604C16.3015 32.0104 15.5605 32.4024 15.0145 33.0154C14.038 34.1139 13.5 35.5284 13.5 36.9999C13.5 38.6464 14.154 40.1819 15.3405 41.3239C16.527 42.4654 18.08 43.0549 19.739 42.9954C22.8295 42.8759 25.3575 40.3619 25.4945 37.2724C25.564 35.6869 25.02 34.1659 23.9625 32.9899ZM19.5 41.9999C16.743 41.9999 14.5 39.7569 14.5 36.9999H15.5C15.5 39.2054 17.2945 40.9999 19.5 40.9999V41.9999Z" fill="#09A66D"/>
<path d="M38.3854 27C38.1464 26.071 37.6899 25.2115 37.0409 24.49C36.2264 23.585 34.8789 23.2865 33.7639 23.7635C33.6789 23.8 33.5899 23.8305 33.4999 23.859V19.5C33.4999 18.673 34.1729 18 34.9999 18H35.4999V17H34.9999C33.6214 17 32.4999 18.1215 32.4999 19.5V23.859C32.4099 23.8305 32.3209 23.8 32.2359 23.7635C31.1214 23.2865 29.7734 23.585 28.9589 24.49C28.3099 25.2115 27.8534 26.0705 27.6144 27H32.9999H38.3854ZM30.7534 24.569C30.7609 24.573 31.5179 25 32.9999 25C34.4819 25 35.2389 24.573 35.2464 24.569L35.7569 25.4285C35.7184 25.452 34.7844 26 32.9999 26C31.2154 26 30.2814 25.452 30.2424 25.4285L30.7534 24.569Z" fill="#09A66D"/>
</svg>
