<svg width="104" height="31" viewBox="0 0 104 31" fill="none" xmlns="http://www.w3.org/2000/svg">
<path d="M100.148 0.5H3.85185C1.72453 0.5 0 2.17893 0 4.25V26.75C0 28.8211 1.72453 30.5 3.85185 30.5H100.148C102.275 30.5 104 28.8211 104 26.75V4.25C104 2.17893 102.275 0.5 100.148 0.5Z" fill="black"/>
<path d="M100.148 1.1C101.006 1.1 101.829 1.43187 102.436 2.02261C103.043 2.61335 103.384 3.41457 103.384 4.25V26.75C103.384 27.5854 103.043 28.3866 102.436 28.9774C101.829 29.5681 101.006 29.9 100.148 29.9H3.85185C2.99373 29.9 2.17075 29.5681 1.56397 28.9774C0.957184 28.3866 0.616296 27.5854 0.616296 26.75V4.25C0.616296 3.41457 0.957184 2.61335 1.56397 2.02261C2.17075 1.43187 2.99373 1.1 3.85185 1.1H100.148ZM100.148 0.5H3.85185C2.83028 0.5 1.85054 0.895088 1.12818 1.59835C0.405819 2.30161 0 3.25544 0 4.25V26.75C0 27.7446 0.405819 28.6984 1.12818 29.4016C1.85054 30.1049 2.83028 30.5 3.85185 30.5H100.148C101.17 30.5 102.149 30.1049 102.872 29.4016C103.594 28.6984 104 27.7446 104 26.75V4.25C104 3.25544 103.594 2.30161 102.872 1.59835C102.149 0.895088 101.17 0.5 100.148 0.5Z" fill="#A6A6A6"/>
<path d="M52.493 16.8126C51.8461 16.8156 51.2146 17.005 50.6782 17.3571C50.1418 17.7091 49.7246 18.2079 49.4791 18.7906C49.2337 19.3733 49.171 20.0138 49.2991 20.6311C49.4272 21.2484 49.7402 21.815 50.1987 22.2592C50.6572 22.7035 51.2406 23.0056 51.8753 23.1274C52.51 23.2492 53.1675 23.1852 53.7648 22.9435C54.3622 22.7018 54.8726 22.2933 55.2317 21.7694C55.5908 21.2455 55.7824 20.6299 55.7825 20.0001C55.7887 19.5785 55.7078 19.1601 55.5445 18.7696C55.3813 18.3791 55.1389 18.0246 54.832 17.7272C54.5251 17.4298 54.1598 17.1956 53.758 17.0384C53.3561 16.8813 52.9259 16.8045 52.493 16.8126ZM52.493 21.9351C52.0951 21.9622 51.6981 21.8721 51.3536 21.6766C51.009 21.4811 50.7328 21.1893 50.5609 20.8389C50.389 20.4886 50.3293 20.096 50.3896 19.7122C50.4499 19.3284 50.6274 18.9711 50.899 18.6869C51.1707 18.4026 51.5239 18.2044 51.9127 18.1182C52.3015 18.0319 52.708 18.0615 53.0794 18.2032C53.4507 18.3448 53.7697 18.5919 53.9948 18.9124C54.22 19.2328 54.3409 19.6118 54.3419 20.0001C54.3543 20.2461 54.316 20.492 54.2292 20.7234C54.1424 20.9548 54.0089 21.1669 53.8366 21.3472C53.6643 21.5276 53.4566 21.6725 53.2259 21.7735C52.9951 21.8744 52.7459 21.9294 52.493 21.9351ZM45.3208 16.8126C44.6736 16.8141 44.0414 17.0023 43.5039 17.3534C42.9665 17.7046 42.5481 18.2029 42.3015 18.7855C42.0548 19.368 41.9911 20.0087 42.1183 20.6265C42.2455 21.2443 42.5579 21.8116 43.0161 22.2566C43.4743 22.7017 44.0577 23.0045 44.6926 23.1269C45.3275 23.2493 45.9854 23.1857 46.5832 22.9442C47.181 22.7028 47.6919 22.2942 48.0513 21.7702C48.4108 21.2462 48.6026 20.6302 48.6026 20.0001C48.6089 19.5785 48.528 19.1601 48.3647 18.7696C48.2014 18.3791 47.9591 18.0246 47.6522 17.7272C47.3452 17.4298 46.98 17.1956 46.5781 17.0384C46.1763 16.8813 45.7461 16.8045 45.3131 16.8126H45.3208ZM45.3208 21.9351C44.9228 21.9637 44.5251 21.875 44.1796 21.6805C43.8341 21.486 43.5567 21.1948 43.3836 20.8447C43.2105 20.4946 43.1497 20.1018 43.209 19.7176C43.2684 19.3333 43.4452 18.9754 43.7164 18.6904C43.9876 18.4053 44.3407 18.2064 44.7297 18.1194C45.1187 18.0325 45.5256 18.0615 45.8973 18.2029C46.2691 18.3442 46.5886 18.5912 46.8141 18.9117C47.0397 19.2323 47.1609 19.6115 47.162 20.0001C47.1744 20.2461 47.1361 20.492 47.0493 20.7234C46.9626 20.9548 46.8291 21.1669 46.6568 21.3472C46.4844 21.5276 46.2768 21.6725 46.046 21.7735C45.8152 21.8744 45.566 21.9294 45.3131 21.9351H45.3208ZM36.7774 17.7951V19.1451H40.1054C40.0532 19.7809 39.7817 20.3809 39.335 20.8476C39.0021 21.1778 38.6018 21.4364 38.16 21.6069C37.7182 21.7774 37.2446 21.856 36.7697 21.8376C35.789 21.8376 34.8485 21.4583 34.155 20.7832C33.4615 20.108 33.0719 19.1924 33.0719 18.2376C33.0719 17.2828 33.4615 16.3671 34.155 15.692C34.8485 15.0169 35.789 14.6376 36.7697 14.6376C37.7079 14.6227 38.6138 14.9706 39.2888 15.6051L40.2672 14.6526C39.8115 14.2034 39.2678 13.8478 38.6684 13.6068C38.0689 13.3659 37.4259 13.2446 36.7774 13.2501C36.0926 13.2241 35.4094 13.3331 34.7688 13.5703C34.1282 13.8076 33.5434 14.1683 33.0494 14.6308C32.5554 15.0934 32.1625 15.6483 31.894 16.2622C31.6256 16.8762 31.4872 17.5366 31.4872 18.2038C31.4872 18.8711 31.6256 19.5315 31.894 20.1454C32.1625 20.7594 32.5554 21.3143 33.0494 21.7768C33.5434 22.2394 34.1282 22.6001 34.7688 22.8374C35.4094 23.0746 36.0926 23.1835 36.7774 23.1576C37.4368 23.1866 38.0949 23.0778 38.7075 22.8384C39.3201 22.5991 39.8729 22.2348 40.3288 21.7701C41.1359 20.9068 41.5668 19.7719 41.5306 18.6051C41.5331 18.3208 41.5073 18.037 41.4536 17.7576L36.7774 17.7951ZM71.6829 18.8451C71.482 18.2696 71.1063 17.7672 70.6055 17.4042C70.1048 17.0413 69.5026 16.835 68.8787 16.8126C68.4574 16.8118 68.0403 16.8951 67.6533 17.0575C67.2663 17.2198 66.9176 17.4577 66.6288 17.7565C66.34 18.0552 66.1172 18.4085 65.9741 18.7944C65.8311 19.1803 65.7709 19.5906 65.7973 20.0001C65.7879 20.4193 65.8654 20.836 66.0252 21.2254C66.1849 21.6147 66.4237 21.9687 66.7271 22.2663C67.0306 22.5638 67.3925 22.7987 67.7913 22.957C68.1901 23.1153 68.6176 23.1937 69.0482 23.1876C69.5871 23.1904 70.1183 23.0631 70.5942 22.817C71.0701 22.571 71.476 22.2138 71.7753 21.7776L70.6583 21.0276C70.4916 21.2982 70.2556 21.522 69.9733 21.6771C69.6911 21.8323 69.3723 21.9134 69.0482 21.9126C68.7145 21.925 68.3847 21.8393 68.1017 21.6668C67.8187 21.4942 67.5955 21.2428 67.4613 20.9451L71.8447 19.1826L71.6829 18.8451ZM67.2147 19.9101C67.1991 19.6781 67.2312 19.4454 67.3091 19.2257C67.387 19.0059 67.5092 18.8035 67.6685 18.6303C67.8277 18.4571 68.0209 18.3165 68.2367 18.2169C68.4524 18.1173 68.6864 18.0606 68.925 18.0501C69.1735 18.0341 69.4213 18.0896 69.6377 18.2096C69.8541 18.3296 70.0295 18.5089 70.1422 18.7251L67.2147 19.9101ZM63.6556 23.0001H65.0962V13.6251H63.6556V23.0001ZM61.2983 17.5251H61.2444C61.0273 17.2888 60.7613 17.0998 60.4639 16.9705C60.1665 16.8413 59.8444 16.7747 59.5187 16.7751C58.6769 16.8148 57.883 17.1684 57.3016 17.7625C56.7202 18.3566 56.3959 19.1458 56.3959 19.9663C56.3959 20.7869 56.7202 21.576 57.3016 22.1702C57.883 22.7643 58.6769 23.1178 59.5187 23.1576C59.8452 23.1629 60.1689 23.0985 60.467 22.969C60.7652 22.8394 61.0305 22.6478 61.2444 22.4076H61.2906V22.8651C61.2906 24.0876 60.6204 24.7401 59.5419 24.7401C59.1826 24.7319 58.8341 24.6198 58.5405 24.4182C58.2469 24.2165 58.0216 23.9343 57.8933 23.6076L56.6376 24.1176C56.8739 24.6774 57.2767 25.1556 57.7941 25.491C58.3116 25.8264 58.9202 26.0037 59.5419 26.0001C61.229 26.0001 62.6233 25.0326 62.6233 22.6776V17.0001H61.2983V17.5251ZM59.6497 21.9351C59.1528 21.8925 58.6903 21.6701 58.3534 21.312C58.0165 20.9538 57.8296 20.4857 57.8296 20.0001C57.8296 19.5144 58.0165 19.0464 58.3534 18.6882C58.6903 18.33 59.1528 18.1077 59.6497 18.0651C59.8961 18.0774 60.1375 18.1376 60.3596 18.2421C60.5817 18.3466 60.7801 18.4934 60.943 18.6737C61.106 18.854 61.2303 19.0643 61.3085 19.2921C61.3867 19.5199 61.4173 19.7606 61.3984 20.0001C61.4195 20.2406 61.3902 20.4828 61.3123 20.712C61.2344 20.9411 61.1096 21.1525 60.9454 21.3334C60.7813 21.5143 60.5811 21.6609 60.3571 21.7643C60.133 21.8677 59.8898 21.9258 59.642 21.9351H59.6497ZM78.4313 13.6251H74.9878V23.0001H76.4284V19.4451H78.439C78.8496 19.4738 79.2619 19.4199 79.6501 19.2866C80.0383 19.1534 80.3941 18.9437 80.6955 18.6707C80.9968 18.3977 81.2371 18.0671 81.4014 17.6997C81.5657 17.3323 81.6505 16.9358 81.6505 16.5351C81.6505 16.1343 81.5657 15.7379 81.4014 15.3705C81.2371 15.003 80.9968 14.6725 80.6955 14.3995C80.3941 14.1264 80.0383 13.9168 79.6501 13.7835C79.2619 13.6503 78.8496 13.5964 78.439 13.6251H78.4313ZM78.4313 18.1251H76.4207V14.9301H78.4622C78.9004 14.9301 79.3207 15.0996 79.6306 15.4013C79.9405 15.703 80.1146 16.1122 80.1146 16.5388C80.1146 16.9655 79.9405 17.3747 79.6306 17.6764C79.3207 17.9781 78.9004 18.1476 78.4622 18.1476L78.4313 18.1251ZM87.3137 16.7751C86.7892 16.7446 86.2671 16.8639 85.8113 17.1184C85.3556 17.3729 84.9861 17.7515 84.7484 18.2076L86.0272 18.7251C86.1533 18.4989 86.3442 18.3132 86.5767 18.1907C86.8092 18.0682 87.0733 18.0141 87.3368 18.0351C87.5197 18.0143 87.705 18.0292 87.8819 18.0788C88.0588 18.1285 88.2238 18.212 88.3672 18.3244C88.5106 18.4368 88.6296 18.5759 88.7172 18.7335C88.8049 18.8912 88.8594 19.0642 88.8776 19.2426V19.3401C88.4149 19.1016 87.8989 18.9779 87.3753 18.9801C85.9964 18.9801 84.602 19.7301 84.602 21.0876C84.6156 21.377 84.6887 21.6609 84.8169 21.9224C84.9452 22.1839 85.1259 22.4177 85.3486 22.6099C85.5712 22.8022 85.8312 22.9491 86.1132 23.0419C86.3951 23.1346 86.6933 23.1714 86.9901 23.1501C87.3529 23.1755 87.716 23.1053 88.0414 22.9469C88.3667 22.7886 88.6422 22.5479 88.839 22.2501H88.8853V23.0001H90.2719V19.3926C90.2719 17.7501 88.9931 16.7976 87.3522 16.7976L87.3137 16.7751ZM87.1365 21.9126C86.6666 21.9126 86.0118 21.6801 86.0118 21.1176C86.0118 20.3676 86.8284 20.1201 87.5525 20.1201C88.0102 20.1091 88.4624 20.2179 88.8621 20.4351C88.814 20.8411 88.6167 21.2166 88.3067 21.4922C87.9967 21.7678 87.5948 21.9251 87.175 21.9351L87.1365 21.9126ZM95.3256 17.0001L93.677 21.0651H93.6307L91.9205 17.0001H90.3798L92.9451 22.6851L91.4814 25.8426H92.9836L96.9279 17.0001H95.3256ZM82.3756 23.0001H83.8162V13.6251H82.3756V23.0001Z" fill="white"/>
<path d="M36.4829 8.2269C36.496 8.50199 36.4515 8.77681 36.3522 9.03466C36.2529 9.29251 36.1008 9.52803 35.9051 9.7269C35.6866 9.94785 35.4228 10.1215 35.1308 10.2365C34.8388 10.3515 34.5251 10.4053 34.2103 10.3944C33.7327 10.3908 33.2667 10.25 32.8709 9.98967C32.4751 9.72936 32.167 9.36112 31.9852 8.93109C31.8034 8.50105 31.7561 8.02835 31.849 7.57222C31.942 7.11608 32.1711 6.6968 32.5078 6.3669C32.729 6.14699 32.9943 5.97362 33.2871 5.85751C33.58 5.74141 33.8942 5.68504 34.2103 5.6919C34.536 5.69085 34.8584 5.75465 35.1579 5.8794C35.4366 5.98887 35.6848 6.16107 35.882 6.3819L35.4737 6.7794C35.3199 6.60135 35.1258 6.46055 34.9065 6.36813C34.6872 6.27571 34.4489 6.23421 34.2103 6.2469C33.9697 6.24575 33.7313 6.29192 33.5094 6.38264C33.2876 6.47337 33.0868 6.60677 32.9192 6.77486C32.7516 6.94295 32.6205 7.14225 32.534 7.36084C32.4474 7.57942 32.407 7.81277 32.4153 8.0469C32.4103 8.3965 32.5117 8.73973 32.7068 9.03328C32.9019 9.32683 33.1819 9.55755 33.5115 9.69635C33.8411 9.83514 34.2056 9.87578 34.5589 9.81315C34.9122 9.75051 35.2386 9.5874 35.4968 9.3444C35.7339 9.09431 35.8706 8.76953 35.882 8.4294H34.2103V7.8894H36.4521C36.4726 8.00079 36.4829 8.11373 36.4829 8.2269ZM40.0112 6.3519H37.9312V7.7769H39.8263V8.3169H37.9312V9.7419H40.0112V10.2969H37.3149V5.7969H40.0112V6.3519ZM42.538 10.2969H41.9448V6.3519H40.6506V5.7969H43.863V6.3519H42.538V10.2969ZM46.1279 10.2969V5.7969H46.7211V10.2969H46.1279ZM49.3558 10.2969H48.7626V6.3519H47.4684V5.7969H50.6423V6.3519H49.3558V10.2969ZM56.6589 9.7119C56.2085 10.1479 55.5992 10.3927 54.9641 10.3927C54.3289 10.3927 53.7196 10.1479 53.2693 9.7119C52.8315 9.26079 52.5876 8.66373 52.5876 8.04315C52.5876 7.42257 52.8315 6.82551 53.2693 6.3744C53.4912 6.15671 53.7553 5.98393 54.0462 5.86603C54.337 5.74813 54.649 5.68743 54.9641 5.68743C55.2792 5.68743 55.5911 5.74813 55.882 5.86603C56.1729 5.98393 56.4369 6.15671 56.6589 6.3744C57.0984 6.82465 57.3434 7.42204 57.3434 8.04315C57.3434 8.66427 57.0984 9.26166 56.6589 9.7119ZM53.7084 9.3369C54.0419 9.66024 54.4934 9.84178 54.9641 9.84178C55.4348 9.84178 55.8863 9.66024 56.2198 9.3369C56.5489 8.98367 56.7312 8.52382 56.7312 8.0469C56.7312 7.56999 56.5489 7.11014 56.2198 6.7569C55.8863 6.43356 55.4348 6.25202 54.9641 6.25202C54.4934 6.25202 54.0419 6.43356 53.7084 6.7569C53.3792 7.11014 53.1969 7.56999 53.1969 8.0469C53.1969 8.52382 53.3792 8.98367 53.7084 9.3369ZM58.1765 10.2969V5.7969H58.9007L61.1502 9.2994V5.7969H61.7433V10.2969H61.127L58.7774 6.6294V10.2969H58.1765Z" fill="white"/>
<path fill-rule="evenodd" clip-rule="evenodd" d="M54.9641 5.76243C54.6592 5.76243 54.3573 5.82117 54.0758 5.93527C53.7946 6.04925 53.5393 6.21622 53.3246 6.42658C52.9008 6.86369 52.6647 7.44204 52.6647 8.04315C52.6647 8.64419 52.9007 9.22247 53.3244 9.65955C53.7603 10.0811 54.3497 10.3177 54.9641 10.3177C55.5785 10.3177 56.168 10.081 56.6038 9.65946C57.0292 9.22324 57.2664 8.64468 57.2664 8.04315C57.2664 7.44155 57.0291 6.86292 56.6036 6.42668C56.3889 6.21627 56.1336 6.04927 55.8524 5.93527C55.5709 5.82117 55.269 5.76243 54.9641 5.76243ZM54.0165 5.79679C54.3168 5.67509 54.6388 5.61243 54.9641 5.61243C55.2893 5.61243 55.6113 5.67509 55.9116 5.79679C56.2119 5.9185 56.4844 6.09685 56.7136 6.32156L56.7148 6.32273C57.1678 6.78691 57.4205 7.40281 57.4205 8.04315C57.4205 8.6835 57.1678 9.29938 56.7147 9.76357L56.7132 9.7651C56.2484 10.2151 55.6196 10.4677 54.9641 10.4677C54.3086 10.4677 53.6797 10.2151 53.2149 9.76508L53.2132 9.76343C52.762 9.2984 52.5106 8.68289 52.5106 8.04315C52.5106 7.40342 52.762 6.78793 53.2133 6.3229L53.2146 6.32155C53.4437 6.09683 53.7163 5.9185 54.0165 5.79679ZM34.2086 5.76688C33.903 5.76025 33.5993 5.81474 33.3162 5.92698C33.0331 6.03921 32.7767 6.2068 32.5628 6.41938L32.5624 6.41976C32.2365 6.73919 32.0146 7.14516 31.9246 7.58681C31.8346 8.02847 31.8805 8.48616 32.0565 8.90254C32.2325 9.31893 32.5308 9.67547 32.9141 9.92752C33.2973 10.1796 33.7484 10.3159 34.2109 10.3194L34.213 10.3194C34.517 10.33 34.8199 10.278 35.1019 10.167C35.3838 10.0559 35.6386 9.88828 35.8495 9.67496C36.038 9.48344 36.1844 9.25664 36.2801 9.00833C36.3757 8.75999 36.4185 8.49532 36.4059 8.23037L36.4829 8.2269L36.4059 8.22687C36.4059 8.13902 36.3994 8.0513 36.3865 7.9644H34.2873V8.3544H35.9616L35.959 8.43185C35.947 8.78997 35.803 9.13193 35.5534 9.39526L35.5504 9.39842C35.2813 9.65171 34.941 9.82164 34.5727 9.88693C34.2044 9.95222 33.8245 9.90986 33.4809 9.76518C33.1374 9.62051 32.8455 9.38001 32.6421 9.07402C32.4391 8.76854 32.3334 8.41145 32.3383 8.04767C32.3299 7.80406 32.372 7.56129 32.4621 7.33385C32.5524 7.10585 32.6891 6.89795 32.8639 6.72262C33.0388 6.54728 33.2482 6.40813 33.4796 6.3135C33.7103 6.21915 33.9582 6.171 34.2084 6.17189C34.4581 6.15895 34.7076 6.20256 34.9371 6.2993C35.1416 6.38552 35.3254 6.51183 35.4771 6.67005L35.7757 6.3793C35.5949 6.1922 35.3743 6.04527 35.129 5.94896L35.1275 5.94837C34.8378 5.82764 34.5257 5.76588 34.2106 5.7669L34.2086 5.76688ZM36.5599 8.22518C36.5732 8.50984 36.5271 8.79417 36.4243 9.06099C36.3214 9.32836 36.1636 9.57257 35.9607 9.77878C35.7348 10.0073 35.4617 10.1871 35.1597 10.306C34.8579 10.4249 34.5339 10.4805 34.2086 10.4694C33.7162 10.4654 33.2359 10.3202 32.8278 10.0518C32.4194 9.78325 32.1015 9.40332 31.914 8.95963C31.7264 8.51595 31.6775 8.02824 31.7735 7.55762C31.8693 7.08709 32.1057 6.65457 32.4529 6.31423C32.6815 6.08708 32.9556 5.90799 33.2581 5.78805C33.5604 5.6682 33.8847 5.60995 34.211 5.6169C34.5466 5.61594 34.8789 5.6817 35.1874 5.81014C35.4772 5.92405 35.7351 6.10312 35.9401 6.33269L35.9873 6.38548L35.4688 6.89026L35.4147 6.82767C35.2687 6.65851 35.0842 6.52475 34.8759 6.43696C34.6676 6.34916 34.4412 6.30973 34.2145 6.32179L34.2099 6.32203C33.9797 6.32094 33.7515 6.36498 33.5393 6.45179C33.327 6.5386 33.1349 6.66626 32.9745 6.8271C32.8141 6.98794 32.6887 7.17866 32.6058 7.38782C32.523 7.59698 32.4844 7.82028 32.4923 8.04432L32.4925 8.04796C32.4876 8.38275 32.5847 8.71143 32.7715 8.99254C32.9583 9.27365 33.2264 9.4946 33.5421 9.62751C33.8578 9.76042 34.2068 9.79934 34.5451 9.73936C34.8828 9.67951 35.1947 9.52385 35.4417 9.29197C35.6472 9.0744 35.7728 8.79742 35.8001 8.5044H34.1333V7.8144H36.5165L36.5279 7.87615C36.5492 7.99134 36.5599 8.10814 36.5599 8.22518ZM37.2379 5.7219H40.0882V6.4269H38.0082V7.7019H39.9033V8.3919H38.0082V9.6669H40.0882V10.3719H37.2379V5.7219ZM37.3919 5.8719V10.2219H39.9342V9.8169H37.8541V8.2419H39.7493V7.8519H37.8541V6.2769H39.9342V5.8719H37.3919ZM40.5736 5.7219H43.9401V6.4269H42.615V10.3719H41.8678V6.4269H40.5736V5.7219ZM40.7276 5.8719V6.2769H42.0219V10.2219H42.461V6.2769H43.786V5.8719H40.7276ZM46.0509 5.7219H46.7981V10.3719H46.0509V5.7219ZM46.205 5.8719V10.2219H46.6441V5.8719H46.205ZM47.3913 5.7219H50.7193V6.4269H49.4328V10.3719H48.6856V6.4269H47.3913V5.7219ZM47.5454 5.8719V6.2769H48.8396V10.2219H49.2787V6.2769H50.5653V5.8719H47.5454ZM58.0995 5.7219H58.9434L61.0731 9.03799V5.7219H61.8204V10.3719H61.0843L58.8544 6.89137V10.3719H58.0995V5.7219ZM58.2536 5.8719V10.2219H58.7004V6.36744L61.1698 10.2219H61.6663V5.8719H61.2272V9.56082L58.858 5.8719H58.2536ZM53.654 6.70376C54.002 6.36642 54.473 6.17702 54.9641 6.17702C55.4551 6.17702 55.9262 6.36642 56.2741 6.70376L56.2769 6.70645C56.6189 7.07348 56.8083 7.55136 56.8083 8.0469C56.8083 8.54245 56.6188 9.02026 56.2768 9.38729L56.2742 9.39011C55.9263 9.72745 55.4551 9.91678 54.9641 9.91678C54.473 9.91678 54.002 9.72739 53.654 9.39005L53.7084 9.3369L53.6513 9.38729C53.3093 9.02026 53.1199 8.54245 53.1199 8.0469C53.1199 7.55136 53.3093 7.07355 53.6513 6.70651L53.654 6.70376ZM53.7641 9.28511C54.0831 9.59361 54.5144 9.76678 54.9641 9.76678C55.4137 9.76678 55.8451 9.59361 56.164 9.28511C56.4795 8.94586 56.6542 8.50456 56.6542 8.0469C56.6542 7.58925 56.4795 7.14795 56.164 6.8087C55.8451 6.5002 55.4137 6.32702 54.9641 6.32702C54.5144 6.32702 54.0831 6.5002 53.7641 6.8087C53.4487 7.14795 53.274 7.58925 53.274 8.0469C53.274 8.50456 53.4487 8.94586 53.7641 9.28511Z" fill="white"/>
<path d="M8.04262 6.15504C7.79153 6.44837 7.66479 6.82389 7.68825 7.20504V23.795C7.66479 24.1762 7.79153 24.5517 8.04262 24.845L8.09654 24.8975L17.6414 15.6125V15.395L8.09654 6.10254L8.04262 6.15504Z" fill="url(#paint0_linear_32_320)"/>
<path d="M20.7999 18.71L17.6414 15.6125V15.395L20.7999 12.29L20.8693 12.3275L24.6518 14.42C25.7303 15.0125 25.7303 15.9875 24.6518 16.5875L20.8847 18.6725L20.7999 18.71Z" fill="url(#paint1_linear_32_320)"/>
<path d="M20.8924 18.665L17.6414 15.5L8.0426 24.845C8.26244 25.0331 8.54287 25.1406 8.83545 25.1488C9.12803 25.157 9.41436 25.0655 9.64497 24.89L20.9001 18.665" fill="url(#paint2_linear_32_320)"/>
<path d="M20.8923 12.335L9.63716 6.11004C9.40655 5.93455 9.12022 5.843 8.82764 5.85122C8.53506 5.85943 8.25462 5.9669 8.03479 6.15504L17.6413 15.5L20.8923 12.335Z" fill="url(#paint3_linear_32_320)"/>
<path opacity="0.2" d="M20.7999 18.5975L9.63727 24.785C9.41486 24.9469 9.1446 25.0344 8.8669 25.0344C8.58919 25.0344 8.31894 24.9469 8.09653 24.785L8.0426 24.8375L8.09653 24.89C8.31844 25.0531 8.58888 25.1413 8.8669 25.1413C9.14492 25.1413 9.41536 25.0531 9.63727 24.89L20.8924 18.665L20.7999 18.5975Z" fill="black"/>
<path opacity="0.12" d="M8.04262 24.74C7.79153 24.4467 7.66479 24.0711 7.68825 23.69V23.8025C7.66479 24.1837 7.79153 24.5592 8.04262 24.8525L8.09654 24.8L8.04262 24.74ZM24.6518 16.475L20.7999 18.5975L20.8693 18.665L24.6518 16.58C24.8664 16.4818 25.0507 16.3303 25.1859 16.1407C25.3212 15.9511 25.4027 15.7301 25.4222 15.5C25.3788 15.709 25.2869 15.9056 25.1533 16.0746C25.0198 16.2437 24.8482 16.3806 24.6518 16.475Z" fill="black"/>
<path opacity="0.25" d="M9.6371 6.21471L24.6516 14.5247C24.848 14.6191 25.0196 14.7561 25.1531 14.9251C25.2867 15.0941 25.3787 15.2907 25.422 15.4997C25.4025 15.2696 25.321 15.0486 25.1857 14.859C25.0505 14.6694 24.8662 14.5179 24.6516 14.4197L9.6371 6.10971C8.55858 5.51721 7.68036 6.01221 7.68036 7.21221V7.32471C7.70347 6.11721 8.56629 5.62221 9.6371 6.21471Z" fill="white"/>
<defs>
<linearGradient id="paint0_linear_32_320" x1="16.794" y1="7.03254" x2="4.21354" y2="19.9547" gradientUnits="userSpaceOnUse">
<stop stop-color="#00A0FF"/>
<stop offset="0.01" stop-color="#00A1FF"/>
<stop offset="0.26" stop-color="#00BEFF"/>
<stop offset="0.51" stop-color="#00D2FF"/>
<stop offset="0.76" stop-color="#00DFFF"/>
<stop offset="1" stop-color="#00E3FF"/>
</linearGradient>
<linearGradient id="paint1_linear_32_320" x1="26.0616" y1="15.5" x2="7.42631" y2="15.5" gradientUnits="userSpaceOnUse">
<stop stop-color="#FFE000"/>
<stop offset="0.41" stop-color="#FFBD00"/>
<stop offset="0.78" stop-color="#FFA500"/>
<stop offset="1" stop-color="#FF9C00"/>
</linearGradient>
<linearGradient id="paint2_linear_32_320" x1="19.1282" y1="17.225" x2="2.06416" y2="34.7448" gradientUnits="userSpaceOnUse">
<stop stop-color="#FF3A44"/>
<stop offset="1" stop-color="#C31162"/>
</linearGradient>
<linearGradient id="paint3_linear_32_320" x1="5.62353" y1="0.635036" x2="13.2408" y2="8.45919" gradientUnits="userSpaceOnUse">
<stop stop-color="#32A071"/>
<stop offset="0.07" stop-color="#2DA771"/>
<stop offset="0.48" stop-color="#15CF74"/>
<stop offset="0.8" stop-color="#06E775"/>
<stop offset="1" stop-color="#00F076"/>
</linearGradient>
</defs>
</svg>
