<svg width="56" height="56" viewBox="0 0 56 56" fill="none" xmlns="http://www.w3.org/2000/svg">
<g clip-path="url(#clip0_32_143)">
<path d="M42.2299 32.2169C42.2299 22.0386 34.0007 13.7876 23.8493 13.7876C13.6979 13.7876 5.46875 22.0386 5.46875 32.2169C5.46875 42.3951 13.6979 50.6461 23.8493 50.6461C34.0007 50.6461 42.2299 42.3951 42.2299 32.2169Z" fill="#89C8FD"/>
<path d="M23.8493 13.7876C22.9059 13.7876 21.9788 13.8589 21.0739 13.9965C29.9081 15.3381 36.6786 22.9845 36.6786 32.2169C36.6786 41.4492 29.9081 49.0956 21.0739 50.4372C21.9788 50.5748 22.9059 50.6461 23.8493 50.6461C34.0007 50.6461 42.2299 42.3951 42.2299 32.2169C42.2299 22.0386 34.0007 13.7876 23.8493 13.7876Z" fill="#60B6FF"/>
<path d="M21.4601 20.9499C18.6287 22.7242 16.5049 25.5629 18.0976 28.757C19.6904 31.9506 23.2297 30.7086 26.5037 30.2651C29.7777 29.8217 27.3001 39.9354 29.2466 42.4194C31.1932 44.9034 36.679 39.9354 36.1484 36.7413C35.3622 32.0126 35.0867 30.3536 41.4573 26.9826L41.4744 26.9762C39.3271 19.7049 32.8269 14.3096 25.0002 13.8247L24.9994 13.8525C24.9994 13.8525 24.2914 19.1755 21.4601 20.9499Z" fill="#BAEB6C"/>
<path d="M35.3653 17.854C35.3666 17.8549 35.3679 17.8561 35.3691 17.857C35.3679 17.8561 35.3666 17.8553 35.3653 17.854Z" fill="#BAEB6C"/>
<path d="M37.613 20.0039C37.613 20.0043 37.6135 20.0048 37.6139 20.0048C37.6135 20.0043 37.6135 20.0043 37.613 20.0039Z" fill="#BAEB6C"/>
<path d="M11.6386 40.5563C10.7884 39.2596 13.1429 36.2095 13.6736 33.9028C14.2046 31.5961 11.0191 31.7734 10.0458 30.9749C9.07257 30.1764 7.74512 26.7166 6.77185 25.918L6.61633 25.7954C5.87463 27.7949 5.46875 29.9585 5.46875 32.2169C5.46875 38.3086 8.41675 43.709 12.9601 47.0641L12.9656 46.6779C12.9656 46.6779 13.6736 43.6616 11.6386 40.5563Z" fill="#BAEB6C"/>
<path d="M36.1484 36.7414C36.1446 36.7183 36.1408 36.6957 36.1369 36.6726C35.7853 38.0932 35.2692 39.4489 34.6099 40.7178C35.6554 39.4839 36.354 37.9796 36.1484 36.7414Z" fill="#BAEB6C"/>
<path d="M25.0003 13.8247L24.9995 13.8525C24.9995 13.8525 24.9405 14.2968 24.7884 14.9706C31.2338 17.4102 35.9528 23.3771 36.6022 30.524C37.4144 29.4132 38.8999 28.3357 41.4574 26.9826L41.4745 26.9762C39.3271 19.7049 32.827 14.3096 25.0003 13.8247Z" fill="#96D629"/>
<path d="M23.8241 55.9999C22.5223 55.9999 21.2111 55.8931 19.9007 55.6765C13.6369 54.6421 8.15062 51.2306 4.45281 46.0703C0.754994 40.91 -0.711742 34.6184 0.323048 28.355C0.397816 27.9012 0.827626 27.5945 1.28008 27.6692C1.73381 27.744 2.041 28.1725 1.96581 28.6263C1.00408 34.4509 2.36785 40.3016 5.80675 45.1005C9.24566 49.8993 14.347 53.0716 20.1725 54.0337C32.1982 56.0204 43.5954 47.8528 45.5817 35.8288C46.5434 30.0041 45.1796 24.1534 41.7407 19.3546C38.3022 14.5558 33.2005 11.3835 27.3754 10.4213C26.9217 10.3465 26.6145 9.91802 26.6893 9.46428C26.7645 9.01055 27.1938 8.70379 27.6463 8.77855C33.9106 9.81292 39.3968 13.2245 43.0942 18.3848C46.792 23.545 48.2588 29.8367 47.2244 36.1001C46.1901 42.3635 42.7781 47.8494 37.6174 51.5467C33.5359 54.4708 28.7473 55.9999 23.8241 55.9999Z" fill="#09A66D"/>
<path d="M18.7693 20.1126C9.88092 18.6044 4.36688 7.41313 4.36688 7.41313C4.36688 7.41313 13.2643 -1.33303 22.1527 0.174724C31.0411 1.68248 36.5552 12.8738 36.5552 12.8738C36.5552 12.8738 27.6578 21.6203 18.7693 20.1126Z" fill="#49CB5C"/>
<path d="M22.1527 0.174722C20.4553 -0.113242 18.7582 -0.0265113 17.1223 0.301187C25.6395 2.21354 30.8933 12.8738 30.8933 12.8738C30.8933 12.8738 25.0691 18.5984 18.1375 19.9861C18.3464 20.0331 18.5566 20.0763 18.7693 20.1126C27.6578 21.6203 36.5552 12.8738 36.5552 12.8738C36.5552 12.8738 31.0411 1.68247 22.1527 0.174722Z" fill="#07B128"/>
<path d="M36.0527 11.9445L27.3604 10.4781L19.241 0.0234375C18.5933 0.0614624 17.9516 0.144348 17.3184 0.263123L24.9337 10.0684L18.3793 8.96271L12.7866 1.72687C12.262 1.96356 11.7518 2.21478 11.2601 2.4754L15.9585 8.55426L5.12054 6.72565C4.63391 7.15076 4.36688 7.41309 4.36688 7.41309C4.36688 7.41309 4.54547 7.77496 4.88812 8.37524L15.6671 10.1936L9.68909 14.816C10.074 15.2125 10.4778 15.6042 10.8999 15.9845L17.9016 10.5709L24.8405 11.7415L15.4035 19.0427C15.9893 19.3162 16.5947 19.5529 17.2189 19.7434L27.075 12.1188L35.7729 13.5859C36.277 13.1463 36.5552 12.8737 36.5552 12.8737C36.5552 12.8737 36.383 12.5251 36.0527 11.9445Z" fill="#09A66D"/>
<path d="M42.6006 9.24951C44.9851 3.6073 53.2467 1.70776 53.2467 1.70776C53.2467 1.70776 57.6427 8.95599 55.2582 14.5982C52.8742 20.2404 44.6121 22.14 44.6121 22.14C44.6121 22.14 40.2161 14.8917 42.6006 9.24951Z" fill="#49CB5C"/>
<path d="M53.2468 1.70776C53.2468 1.70776 51.3682 2.14014 49.144 3.20398C50.2852 5.62134 52.0941 10.5274 50.3736 14.5982C49.1265 17.5496 46.2708 19.4769 43.8307 20.6437C44.2712 21.5768 44.6126 22.14 44.6126 22.14C44.6126 22.14 52.8743 20.2404 55.2587 14.5982C57.6428 8.95599 53.2468 1.70776 53.2468 1.70776Z" fill="#07B128"/>
<path d="M55.9338 9.94464L49.5806 12.6098L53.7518 2.63745C53.4532 2.04785 53.2468 1.70776 53.2468 1.70776C53.2468 1.70776 52.8538 1.79834 52.2142 1.99829L47.9033 12.3043L45.23 5.72687C44.7771 6.12634 44.3499 6.56042 43.9623 7.03082L46.9915 14.4841L44.1461 21.2867C44.4238 21.8289 44.6122 22.14 44.6122 22.14C44.6122 22.14 45.0394 22.0417 45.7264 21.8238L48.6646 14.7999L55.9312 11.7519C55.9795 11.1482 55.9769 10.5428 55.9338 9.94464Z" fill="#09A66D"/>
</g>
<defs>
<clipPath id="clip0_32_143">
<rect width="56" height="56" fill="white"/>
</clipPath>
</defs>
</svg>
