<svg width="40" height="40" viewBox="0 0 40 40" fill="none" xmlns="http://www.w3.org/2000/svg">
<g clip-path="url(#clip0_32_249)">
<path d="M14.686 27.8216H25.0771C25.4008 27.8216 25.6631 27.5593 25.6631 27.2357C25.6631 26.9121 25.4008 26.6498 25.0771 26.6498H14.686C14.3624 26.6498 14.1 26.9121 14.1 27.2357C14.1 27.5593 14.3624 27.8216 14.686 27.8216ZM16.522 14.3792H23.4784C24.0089 14.3792 24.4688 14.0381 24.6229 13.5305L26.0829 8.72008C26.1941 8.35391 26.1271 7.96758 25.8991 7.66023C25.6712 7.35289 25.321 7.17664 24.9384 7.17664H24.4187L23.3567 4.5218C23.1126 3.91055 22.5296 3.51562 21.8713 3.51562H18.1291C17.4709 3.51562 16.8878 3.91055 16.6437 4.52148L15.5817 7.17656H15.062C14.6793 7.17656 14.3292 7.35281 14.1012 7.66023C13.8732 7.96766 13.8063 8.35391 13.9174 8.72008L15.3774 13.5305C15.5315 14.0381 15.9914 14.3792 16.522 14.3792ZM15.0425 8.3582C15.0602 8.3343 18.2296 8.35617 18.2522 8.34844C18.5758 8.34844 18.8381 8.08609 18.8381 7.7625C18.8381 7.43891 18.5758 7.17656 18.2522 7.17656H16.8438L17.7317 4.95656C17.797 4.79313 17.953 4.6875 18.1291 4.6875H21.8713C22.0474 4.6875 22.2033 4.79313 22.2686 4.95672L23.1566 7.17656H20.9865C20.6628 7.17656 20.4006 7.43891 20.4006 7.7625C20.4006 8.08609 20.6628 8.34844 20.9865 8.34844C21.0062 8.34844 24.9428 8.33797 24.9578 8.3582C24.9753 8.38172 23.5015 13.1655 23.5015 13.1902C23.5015 13.2423 16.5019 13.2005 16.4988 13.1902C16.4913 13.1656 15.0251 8.38164 15.0425 8.3582ZM14.686 33.667C14.3624 33.667 14.1 33.9293 14.1 34.2529C14.1 34.5765 14.3624 34.8388 14.686 34.8388H25.0771C25.4008 34.8388 25.6631 34.5765 25.6631 34.2529C25.6631 33.9293 25.4008 33.667 25.0771 33.667H14.686ZM30.3506 31.9091C30.3506 31.5855 30.0883 31.3232 29.7646 31.3232H14.686C14.3624 31.3232 14.1 31.5855 14.1 31.9091C14.1 32.2327 14.3624 32.4951 14.686 32.4951H29.7646C30.0883 32.4951 30.3506 32.2327 30.3506 31.9091ZM33.2803 25.6489C33.6039 25.6489 33.8662 25.3866 33.8662 25.063V2.92969C33.8662 1.31422 32.552 0 30.9365 0H9.06384C7.44837 0 6.13416 1.31422 6.13416 2.92969V37.0703C6.13416 38.6858 7.44837 40 9.06384 40H30.9366C32.5521 40 33.8663 38.6858 33.8663 37.0703V27.7973C33.8663 27.4737 33.604 27.2114 33.2803 27.2114C32.9567 27.2114 32.6944 27.4737 32.6944 27.7973V37.0703C32.6944 38.0396 31.9058 38.8281 30.9366 38.8281H9.06384C8.09455 38.8281 7.30603 38.0396 7.30603 37.0703V2.92969C7.30603 1.96039 8.09455 1.17188 9.06384 1.17188H30.9366C31.9058 1.17188 32.6944 1.96039 32.6944 2.92969V25.063C32.6943 25.3866 32.9567 25.6489 33.2803 25.6489ZM12.3695 28.271C12.081 28.2746 11.7785 28.2774 11.5011 28.2788C11.6981 28.0113 11.9474 27.6663 12.2581 27.2223C12.5306 26.833 12.7234 26.4805 12.7736 26.1144C12.7818 26.0544 12.7976 25.9466 12.7976 25.8894C12.7976 25.0163 12.0874 24.3061 11.2143 24.3061C10.4595 24.3061 9.80611 24.8432 9.66072 25.5831C9.59838 25.9006 9.80517 26.2087 10.1228 26.271C10.4403 26.3334 10.7483 26.1266 10.8106 25.809C10.8483 25.6171 11.0181 25.478 11.2143 25.478C11.4313 25.478 11.6097 25.6469 11.6247 25.8602C11.6395 26.0707 11.5321 26.2158 11.298 26.5503C10.6824 27.4299 10.3151 27.9108 10.1178 28.1691C9.77337 28.6201 9.60877 29.2079 10.2054 29.4067C10.2824 29.4323 11.8291 29.4498 12.3842 29.4428C12.7078 29.4388 12.9668 29.1731 12.9628 28.8495C12.9587 28.5259 12.6903 28.2648 12.3695 28.271ZM29.7646 24.306H14.686C14.3624 24.306 14.1 24.5684 14.1 24.892C14.1 25.2155 14.3624 25.4779 14.686 25.4779H29.7646C30.0883 25.4779 30.3506 25.2155 30.3506 24.892C30.3506 24.5684 30.0883 24.306 29.7646 24.306ZM11.3063 31.3232C10.5514 31.3232 9.89806 31.8603 9.75267 32.6002C9.69033 32.9177 9.89713 33.2258 10.2147 33.2881C10.532 33.3504 10.8402 33.1437 10.9026 32.8261C10.9402 32.6342 11.11 32.4951 11.3063 32.4951C11.5331 32.4951 11.7177 32.6796 11.7177 32.9065C11.7177 33.1334 11.5331 33.3179 11.3063 33.3179C10.9827 33.3179 10.7203 33.5802 10.7203 33.9038C10.7203 34.2274 10.9827 34.4898 11.3063 34.4898C11.5331 34.4898 11.7177 34.6743 11.7177 34.9012C11.7177 35.128 11.5331 35.3126 11.3063 35.3126C11.1021 35.3126 10.927 35.1607 10.8988 34.959C10.8962 34.9401 10.8949 34.9206 10.8949 34.9012C10.8949 34.5776 10.6325 34.3152 10.3089 34.3152C9.98533 34.3152 9.72298 34.5776 9.72298 34.9012C9.72298 35.7618 10.4371 36.4845 11.3063 36.4845C12.1793 36.4845 12.8895 35.7742 12.8895 34.9012C12.8895 34.5234 12.7561 34.1763 12.5344 33.9038C12.7561 33.6313 12.8895 33.2843 12.8895 32.9065C12.8895 32.0334 12.1793 31.3232 11.3063 31.3232ZM11.3063 22.3889C11.6299 22.3889 11.8922 22.1266 11.8922 21.803V17.9053C11.8922 17.5817 11.6299 17.3194 11.3063 17.3194H10.4731C10.1495 17.3194 9.8872 17.5817 9.8872 17.9053C9.8872 18.2289 10.1495 18.4913 10.4731 18.4913H10.7203V21.803C10.7203 22.1266 10.9827 22.3889 11.3063 22.3889ZM14.686 20.835H25.0771C25.4008 20.835 25.6631 20.5727 25.6631 20.2491C25.6631 19.9255 25.4008 19.6631 25.0771 19.6631H14.686C14.3624 19.6631 14.1 19.9255 14.1 20.2491C14.1 20.5727 14.3624 20.835 14.686 20.835ZM29.7646 17.3194H14.686C14.3624 17.3194 14.1 17.5817 14.1 17.9053C14.1 18.2289 14.3624 18.4913 14.686 18.4913H29.7646C30.0883 18.4913 30.3506 18.2289 30.3506 17.9053C30.3506 17.5817 30.0883 17.3194 29.7646 17.3194Z" fill="#09A66D"/>
</g>
<defs>
<clipPath id="clip0_32_249">
<rect width="40" height="40" fill="white"/>
</clipPath>
</defs>
</svg>
